<?xml version="1.0" encoding="utf-8"?>
<svg version="1.1" xmlns:xlink="http://www.w3.org/1999/xlink" width="22px" height="28px" xmlns="http://www.w3.org/2000/svg">
  <g transform="matrix(1 0 0 1 -646 -1480 )">
    <path d="M 20.9857142857143 14.7714285714286  C 22.9142857142857 9.28571428571428  20 3.24285714285714  14.4285714285714 1.35714285714286  C 8.9 -0.528571428571428  2.9 2.38571428571428  0.971428571428572 7.87142857142857  C -0.914285714285715 13.4  2 19.4428571428571  7.48571428571428 21.3714285714286  C 5.9 22.4857142857143  4.95714285714286 24.3714285714286  4.95714285714286 26.3428571428571  C 4.95714285714286 26.8571428571429  5.34285714285714 27.2428571428571  5.85714285714286 27  L 16.4428571428571 27  C 16.9571428571429 27.2428571428571  17.3428571428571 26.8571428571428  17.3428571428571 26.3428571428571  C 17.3428571428571 24.2857142857143  16.3571428571429 22.4428571428571  14.6857142857143 21.2428571428571  C 17.6428571428571 20.1285714285714  19.9571428571428 17.7714285714286  20.9857142857143 14.7714285714286  Z M 14.3 16.1857142857143  C 13.8714285714286 17.4285714285714  12.5428571428571 18.2857142857143  11 18.2857142857143  C 9.45714285714286 18.2857142857143  8.12857142857143 17.4714285714286  7.65714285714286 16.1857142857143  L 8.51428571428572 15.8428571428571  C 8.94285714285714 16.9571428571429  10.1 17.3428571428571  11 17.3428571428571  C 11.8571428571429 17.3428571428571  13.0571428571429 16.9571428571429  13.4428571428571 15.8428571428571  L 14.3 16.1857142857143  Z " fill-rule="nonzero" fill="#ffffff" stroke="none" transform="matrix(1 0 0 1 646 1480 )" />
  </g>
</svg>