<?xml version="1.0" encoding="utf-8"?>
<svg version="1.1" xmlns:xlink="http://www.w3.org/1999/xlink" width="23px" height="24px" xmlns="http://www.w3.org/2000/svg">
  <g transform="matrix(1 0 0 1 -82 -1482 )">
    <path d="M 0.766666666666665 1.62857142857143  C 1.27777777777778 0.857142857142857  2.08703703703704 0.385714285714285  2.98148148148148 0.257142857142858  C 3.10925925925926 0.257142857142858  3.27962962962963 0.214285714285714  3.40740740740741 0.214285714285714  L 19.7203703703704 0.214285714285714  C 20.6148148148148 0.214285714285714  21.4666666666667 0.599999999999999  22.062962962963 1.24285714285714  C 22.5740740740741 1.8  22.8722222222222 2.52857142857143  22.8722222222222 3.3  L 22.8722222222222 12  C 22.8722222222222 12.1714285714286  22.9148148148148 12.3428571428571  22.8296296296296 12.5142857142857  C 22.7018518518519 12.8142857142857  22.2759259259259 12.9857142857143  21.9777777777778 12.8142857142857  C 19.9333333333333 11.8285714285714  17.5907407407407 11.9142857142857  15.5888888888889 12.9428571428571  C 14.1407407407407 13.7142857142857  12.9907407407407 15.0428571428571  12.437037037037 16.5857142857143  C 11.6703703703704 18.6428571428571  11.9685185185185 20.9142857142857  13.2037037037037 22.7142857142857  C 13.2462962962963 22.7571428571429  13.2888888888889 22.8428571428571  13.3314814814815 22.8857142857143  C 13.5018518518519 23.1857142857143  13.3740740740741 23.5714285714286  13.0759259259259 23.7  C 12.9907407407407 23.7428571428571  12.9055555555556 23.7428571428571  12.8203703703704 23.7857142857143  L 3.32222222222222 23.7857142857143  C 2.51296296296296 23.7857142857143  1.7037037037037 23.4428571428572  1.15 22.8857142857143  C 0.553703703703702 22.2857142857143  0.212962962962961 21.4714285714286  0.212962962962961 20.6142857142857  L 0.212962962962961 3.38571428571429  C 0.212962962962961 2.74285714285714  0.383333333333331 2.14285714285714  0.766666666666665 1.62857142857143  Z M 5.36666666666667 5.4  C 5.28148148148148 5.4  5.23888888888889 5.4  5.1962962962963 5.4  C 4.98333333333334 5.44285714285714  4.81296296296297 5.61428571428571  4.77037037037037 5.87142857142857  C 4.72777777777778 6.08571428571429  4.77037037037037 6.3  4.94074074074074 6.47142857142857  C 5.06851851851852 6.6  5.23888888888889 6.64285714285714  5.40925925925926 7  L 17.5907407407407 7  C 17.7185185185185 6.64285714285714  17.8462962962963 6.64285714285714  17.9314814814815 6.6  C 18.187037037037 6.51428571428571  18.3574074074074 6.21428571428572  18.3574074074074 5.95714285714286  C 18.3148148148148 5.65714285714285  18.0592592592593 5.4  17.7611111111111 5.4  L 5.36666666666667 5.4  Z M 12.1814814814815 10.4571428571429  C 9.88148148148148 10.4571428571429  7.58148148148148 10.4571428571429  5.32407407407407 10.4571428571429  C 5.1537037037037 10.4571428571429  4.98333333333334 10.5857142857143  4.85555555555556 10.7142857142857  C 4.68518518518519 10.9285714285714  4.68518518518519 11.2714285714286  4.89814814814815 11.4857142857143  C 5.02592592592593 11.6142857142857  5.1962962962963 11.7  5.40925925925926 11.7  L 12.1814814814815 11.7  C 12.3944444444444 11.7  12.5648148148148 11.6142857142857  12.6925925925926 11.4428571428571  C 12.9055555555556 11.1428571428571  12.8203703703704 10.7571428571429  12.5222222222222 10.5857142857143  C 12.437037037037 10.5  12.3092592592593 10.4571428571429  12.1814814814815 10.4571428571429  Z " fill-rule="nonzero" fill="#ffffff" stroke="none" transform="matrix(1 0 0 1 82 1482 )" />
  </g>
</svg>