<?xml version="1.0" encoding="utf-8"?>
<svg version="1.1" xmlns:xlink="http://www.w3.org/1999/xlink" width="12px" height="12px" xmlns="http://www.w3.org/2000/svg">
  <g transform="matrix(1 0 0 1 -95 -1495 )">
    <path d="M 2.05714285714286 1.97142857142857  C 3 1.11428571428571  4.24285714285715 0.514285714285716  5.57142857142857 0.428571428571429  C 6.42857142857143 0.342857142857142  7.28571428571428 0.471428571428572  8.1 0.77142857142857  C 9.12857142857143 1.15714285714286  10.0285714285714 1.84285714285714  10.7142857142857 2.74285714285714  C 11.2285714285714 3.42857142857143  11.5714285714286 4.24285714285715  11.7 5.05714285714286  C 11.8714285714286 6.12857142857143  11.7857142857143 7.2  11.3571428571429 8.18571428571428  C 11.0571428571429 8.95714285714285  10.5428571428571 9.68571428571428  9.94285714285714 10.2428571428571  C 9.3 10.8428571428571  8.52857142857143 11.2714285714286  7.67142857142857 11.5285714285714  C 6.64285714285714 11.8285714285714  5.52857142857143 11.8285714285714  4.5 11.5285714285714  C 3.64285714285714 11.2714285714286  2.87142857142857 10.8428571428571  2.22857142857143 10.2428571428571  C 1.37142857142857 9.42857142857142  0.771428571428573 8.4  0.514285714285716 7.24285714285714  C 0.300000000000001 6.3  0.342857142857145 5.35714285714285  0.600000000000002 4.41428571428571  C 0.85714285714286 3.51428571428572  1.37142857142857 2.65714285714286  2.05714285714286 1.97142857142857  Z M 4.84285714285714 4.28571428571429  L 4.84285714285714 6.81428571428572  C 4.84285714285714 6.9  4.84285714285714 6.98571428571429  4.88571428571428 7.07142857142857  C 4.97142857142857 7.28571428571428  5.18571428571428 7.45714285714286  5.44285714285714 7.5  C 6.34285714285713 7.5  7.19999999999999 7.5  8.1 7.5  C 8.31428571428571 7.5  8.48571428571428 7.37142857142857  8.61428571428571 7.15714285714286  C 8.74285714285714 6.9  8.7 6.51428571428572  8.44285714285714 6.34285714285714  C 8.27142857142857 6.21428571428572  8.1 6.21428571428572  7.88571428571428 6.21428571428572  L 6.17142857142857 6.21428571428572  L 6.17142857142857 4.32857142857143  C 6.17142857142857 3.98571428571428  5.91428571428571 3.68571428571428  5.57142857142857 3.68571428571428  C 5.52857142857142 3.68571428571428  5.48571428571428 3.68571428571428  5.39999999999999 3.68571428571428  C 5.05714285714286 3.77142857142857  4.84285714285714 3.98571428571428  4.84285714285714 4.28571428571429  Z " fill-rule="nonzero" fill="#ffffff" stroke="none" transform="matrix(1 0 0 1 95 1495 )" />
  </g>
</svg>