<?xml version="1.0" encoding="utf-8"?>
<svg version="1.1" xmlns:xlink="http://www.w3.org/1999/xlink" width="28px" height="26px" xmlns="http://www.w3.org/2000/svg">
  <g transform="matrix(1 0 0 1 -259 -1481 )">
    <path d="M 27.4571428571429 4.38571428571428  C 27.5 2.37142857142857  25.8714285714286 0.742857142857142  23.8142857142857 1  L 10.2714285714286 1  C 6.8 0.785714285714285  4.1 3.65714285714286  4.18571428571428 7.12857142857143  L 4.18571428571428 20  L 18.2857142857143 20  C 18.5 20.3714285714286  18.7142857142857 20.5  18.8428571428571 20.6714285714286  C 18.9714285714286 20.8428571428571  18.9714285714286 21.1  18.8428571428571 21.2714285714286  C 18.7142857142857 21.4428571428571  18.5428571428571 21.5714285714286  18.2857142857143 21.5714285714286  L 0.5 21.5714285714286  C 0.5 22.5571428571429  0.842857142857143 23.5  1.52857142857143 24.1857142857143  C 2.21428571428571 24.8714285714286  3.2 25.2571428571429  4.14285714285714 25  L 17.7285714285714 25  C 19.4 25.3  20.9428571428571 24.7  22.1 23.5  C 23.2571428571429 22.3428571428571  23.8571428571429 20.7142857142857  23.7714285714286 19.1285714285714  L 23.7714285714286 4.38571428571428  L 27.4571428571429 4.38571428571428  Z M 7.78571428571428 10.5142857142857  L 7.78571428571428 11.7571428571429  L 6.54285714285714 11.7571428571429  L 6.54285714285714 10.5142857142857  L 7.78571428571428 10.5142857142857  Z M 7.78571428571428 6.82857142857143  C 7.78571428571428 6.87142857142857  7.78571428571428 8.07142857142857  7.78571428571428 8.07142857142857  L 6.54285714285714 8.07142857142857  L 6.54285714285714 6.82857142857143  L 7.78571428571428 6.82857142857143  Z M 18.8857142857143 10.5142857142857  L 18.8857142857143 11.7571428571429  L 9.02857142857143 11.7571428571429  L 9.02857142857143 10.5142857142857  L 18.8857142857143 10.5142857142857  Z M 18.8857142857143 6.82857142857143  C 18.8857142857143 6.87142857142857  18.8857142857143 8.07142857142857  18.8857142857143 8.07142857142857  L 9.02857142857143 8.07142857142857  L 9.02857142857143 6.82857142857143  L 18.8857142857143 6.82857142857143  Z " fill-rule="nonzero" fill="#ffffff" stroke="none" transform="matrix(1 0 0 1 259 1481 )" />
  </g>
</svg>