<?xml version="1.0" encoding="utf-8"?>
<svg version="1.1" xmlns:xlink="http://www.w3.org/1999/xlink" width="26px" height="27px" xmlns="http://www.w3.org/2000/svg">
  <g transform="matrix(1 0 0 1 -113 -1481 )">
    <path d="M 24.8208955223881 9.77611940298507  C 25.5373134328358 10.134328358209  25.8955223880597 10.8507462686567  25.8955223880597 11.5671641791045  L 25.8955223880597 23.3880597014925  C 25.8955223880597 24.8208955223881  24.4626865671642 26.2537313432836  22.6716417910448 26.2537313432836  L 17.2985074626866 26.2537313432836  C 16.2238805970149 26.2537313432836  15.5074626865672 25.5373134328358  15.5074626865672 24.8208955223881  L 15.5074626865672 20.5223880597015  C 15.5074626865672 19.4477611940299  14.0746268656716 18.3731343283582  12.6417910447761 18.7313432835821  C 11.5671641791045 18.7313432835821  10.8507462686567 19.4477611940299  10.8507462686567 20.5223880597015  L 10.8507462686567 24.8208955223881  C 10.8507462686567 25.5373134328358  10.134328358209 26.2537313432836  9.05970149253731 26.2537313432836  L 3.6865671641791 26.2537313432836  C 1.8955223880597 26.2537313432836  0.462686567164178 25.1791044776119  0.462686567164178 23.3880597014925  L 0.462686567164178 11.5671641791045  C 0.462686567164178 10.8507462686567  0.82089552238806 10.134328358209  1.17910447761194 9.77611940298507  L 10.4925373134328 0.82089552238806  C 11.9253731343284 -0.253731343283581  14.0746268656716 -0.253731343283581  15.5074626865672 0.82089552238806  L 24.8208955223881 9.77611940298507  Z " fill-rule="nonzero" fill="#ffffff" stroke="none" transform="matrix(1 0 0 1 113 1481 )" />
  </g>
</svg>