<?xml version="1.0" encoding="utf-8"?>
<svg version="1.1" xmlns:xlink="http://www.w3.org/1999/xlink" width="19px" height="13px" xmlns="http://www.w3.org/2000/svg">
  <g transform="matrix(1 0 0 1 -26 -253 )">
    <path d="M 18.2523847376789 8.41941176470588  L 18.7130365659777 10.2852941176471  L 18.2523847376789 10.7517647058824  L 16.8704292527822 10.7517647058824  C 16.8704292527822 9.81882352941177  15.9491255961844 8.88588235294118  14.5671701112878 8.88588235294118  L 14.5671701112878 8.41941176470588  L 14.1065182829889 8.41941176470588  L 14.1065182829889 5.15411764705882  L 14.5671701112878 4.68764705882353  L 17.79173290938 4.68764705882353  C 18.2523847376789 5.62058823529412  18.2523847376789 6.08705882352941  18.7130365659777 7.02  L 14.5671701112878 7.02  L 18.2523847376789 7.02  L 18.2523847376789 8.41941176470588  Z M 0.747615262321145 8.41941176470588  L 0.747615262321145 9.35235294117647  L 0.286963434022257 9.35235294117647  L 0.286963434022257 10.7517647058824  L 0.747615262321145 10.7517647058824  L 0.747615262321145 11.2182352941176  L 1.20826709062003 11.2182352941176  C 1.20826709062003 10.7517647058824  1.20826709062003 10.2852941176471  1.20826709062003 10.2852941176471  C 1.20826709062003 9.81882352941176  1.66891891891892 9.81882352941176  1.66891891891892 9.35235294117647  L 3.97217806041336 9.35235294117647  C 3.97217806041336 9.81882352941176  3.97217806041336 9.81882352941176  4.43282988871224 10.2852941176471  C 4.43282988871224 10.7517647058824  4.43282988871224 10.7517647058824  4.43282988871224 11.2182352941176  L 4.89348171701113 11.2182352941176  C 4.89348171701113 10.7517647058824  4.89348171701113 10.2852941176471  4.89348171701113 10.2852941176471  C 4.89348171701113 9.81882352941176  5.35413354531002 9.81882352941176  5.35413354531002 9.35235294117647  L 7.65739268680445 9.35235294117647  C 7.65739268680445 9.35235294117647  7.65739268680445 9.81882352941177  8.11804451510334 9.81882352941177  C 8.11804451510334 10.2852941176471  8.11804451510334 10.2852941176471  8.11804451510334 10.7517647058824  L 8.57869634340223 10.7517647058824  L 13.1852146263911 10.7517647058824  L 13.1852146263911 11.2182352941176  L 13.64586645469 11.2182352941176  C 13.64586645469 10.2852941176471  14.1065182829889 9.35235294117647  15.0278219395866 9.35235294117647  L 15.0278219395866 8.88588235294118  C 15.0278219395866 8.88588235294118  14.5671701112878 8.88588235294118  14.5671701112878 8.88588235294118  L 14.5671701112878 7.95294117647059  L 12.7245627980922 7.95294117647059  L 12.7245627980922 9.35235294117647  L 11.8032591414944 9.35235294117647  L 10.4213036565978 5.62058823529412  L 9.03934817170111 5.62058823529412  L 9.03934817170111 9.35235294117647  L 8.57869634340223 9.35235294117647  L 8.57869634340223 8.41941176470588  L 0.747615262321145 8.41941176470588  Z M 9.96065182829889 6.55352941176471  C 9.5 6.55352941176471  9.5 6.55352941176471  9.96065182829889 6.55352941176471  C 9.96065182829889 6.55352941176471  10.4213036565978 6.55352941176471  9.96065182829889 6.55352941176471  C 10.4213036565978 7.48647058823529  9.96065182829889 7.48647058823529  9.96065182829889 7.48647058823529  C 9.5 7.48647058823529  9.5 7.02  9.96065182829889 6.55352941176471  Z M 12.7245627980922 3.28823529411765  L 12.7245627980922 6.08705882352941  L 12.7245627980922 6.55352941176471  L 11.3426073131955 7.48647058823529  L 10.4213036565978 5.62058823529412  L 8.57869634340223 5.62058823529412  L 8.57869634340223 8.41941176470588  L 0.747615262321145 5.62058823529412  L 0.747615262321145 5.15411764705882  L 0.747615262321145 2.35529411764706  L 0.747615262321145 1.88882352941177  L 9.03934817170111 0.489411764705881  L 12.7245627980922 3.28823529411765  Z M 9.5 1.42235294117647  L 1.66891891891892 2.82176470588235  L 9.5 2.82176470588235  L 12.2639109697933 3.75470588235294  L 12.2639109697933 3.28823529411765  L 9.5 1.42235294117647  Z M 16.8704292527822 5.15411764705882  L 15.0278219395866 5.15411764705882  L 15.0278219395866 6.55352941176471  L 17.79173290938 7.02  C 17.79173290938 6.55352941176471  17.79173290938 6.08705882352941  17.3310810810811 5.62058823529412  L 17.3310810810811 6.08705882352941  L 16.8704292527822 6.08705882352941  L 16.8704292527822 5.15411764705882  Z M 18.2523847376789 10.2852941176471  L 17.3310810810811 10.2852941176471  L 18.2523847376789 10.2852941176471  Z M 17.79173290938 9.35235294117647  L 16.8704292527822 9.35235294117647  L 17.79173290938 9.35235294117647  Z M 17.79173290938 8.88588235294118  L 16.4097774244833 8.88588235294118  L 17.79173290938 8.88588235294118  Z M 1.66891891891892 9.81882352941177  C 1.66891891891892 9.35235294117647  2.12957074721781 9.35235294117647  2.59022257551669 9.35235294117647  C 3.05087440381558 9.35235294117647  3.51152623211447 9.35235294117647  3.51152623211447 9.81882352941177  C 3.97217806041336 10.2852941176471  3.97217806041336 10.2852941176471  3.97217806041336 10.7517647058824  C 3.97217806041336 11.2182352941176  3.97217806041336 11.6847058823529  3.51152623211447 11.6847058823529  C 3.51152623211447 12.1511764705882  3.05087440381558 12.6176470588235  2.59022257551669 12.6176470588235  C 2.1295707472178 12.6176470588235  1.66891891891892 12.6176470588235  1.66891891891892 12.1511764705882  C 1.20826709062003 11.6847058823529  1.20826709062003 11.2182352941176  1.20826709062003 10.7517647058824  C 1.20826709062003 10.2852941176471  1.20826709062003 9.81882352941177  1.66891891891892 9.81882352941177  Z M 2.12957074721781 10.7517647058824  C 2.12957074721781 10.7517647058824  2.12957074721781 11.2182352941176  2.12957074721781 10.7517647058824  C 2.12957074721781 11.2182352941176  2.12957074721781 10.7517647058824  2.12957074721781 10.7517647058824  Z M 2.12957074721781 11.2182352941176  C 2.12957074721781 11.2182352941176  2.59022257551669 11.2182352941176  2.12957074721781 11.2182352941176  C 2.59022257551669 11.2182352941176  2.59022257551669 11.2182352941176  2.12957074721781 11.2182352941176  Z M 2.59022257551669 11.2182352941176  C 2.59022257551669 11.6847058823529  2.59022257551669 11.6847058823529  2.59022257551669 11.2182352941176  C 2.59022257551669 11.6847058823529  2.59022257551669 11.6847058823529  2.59022257551669 11.2182352941176  Z M 3.05087440381558 10.7517647058824  C 3.05087440381558 10.7517647058824  3.51152623211447 10.7517647058824  3.05087440381558 10.7517647058824  Z M 3.05087440381558 10.7517647058824  C 3.05087440381558 10.2852941176471  3.05087440381558 10.2852941176471  3.05087440381558 10.7517647058824  Z M 2.59022257551669 10.2852941176471  C 2.59022257551669 10.7517647058824  2.59022257551669 10.7517647058824  2.59022257551669 10.2852941176471  C 2.12957074721781 10.7517647058824  2.12957074721781 10.7517647058824  2.59022257551669 10.2852941176471  C 2.12957074721781 10.7517647058824  2.12957074721781 10.7517647058824  2.59022257551669 10.2852941176471  Z M 3.05087440381558 10.2852941176471  C 3.05087440381558 10.7517647058824  3.51152623211447 10.7517647058824  3.05087440381558 10.2852941176471  C 3.05087440381558 10.7517647058824  3.05087440381558 11.2182352941176  3.05087440381558 11.2182352941176  C 3.05087440381558 11.2182352941176  2.59022257551669 11.2182352941176  2.59022257551669 11.2182352941176  C 2.59022257551669 11.2182352941176  2.1295707472178 11.2182352941176  2.1295707472178 11.2182352941176  C 2.1295707472178 11.2182352941176  2.1295707472178 10.7517647058824  2.1295707472178 10.7517647058824  C 2.1295707472178 10.7517647058824  2.1295707472178 10.2852941176471  2.1295707472178 10.2852941176471  C 2.59022257551669 10.2852941176471  2.59022257551669 10.2852941176471  3.05087440381558 10.2852941176471  Z M 5.35413354531002 9.81882352941177  C 5.8147853736089 9.35235294117647  6.27543720190779 9.35235294117647  6.27543720190779 9.35235294117647  C 6.73608903020668 9.35235294117647  7.19674085850557 9.35235294117647  7.19674085850557 9.81882352941177  C 7.65739268680445 10.2852941176471  8.11804451510334 10.2852941176471  8.11804451510334 10.7517647058824  C 8.11804451510334 11.2182352941176  7.65739268680445 11.6847058823529  7.65739268680445 12.1511764705882  C 7.19674085850557 12.1511764705882  6.73608903020668 12.6176470588235  6.27543720190779 12.6176470588235  C 5.8147853736089 12.6176470588235  5.35413354531002 12.6176470588235  5.35413354531002 12.1511764705882  C 4.89348171701113 11.6847058823529  4.89348171701113 11.2182352941176  4.89348171701113 10.7517647058824  C 4.89348171701113 10.2852941176471  4.89348171701113 9.81882352941177  5.35413354531002 9.81882352941177  Z M 5.8147853736089 10.7517647058824  C 5.8147853736089 10.7517647058824  6.27543720190779 10.7517647058824  5.8147853736089 10.7517647058824  C 6.27543720190779 10.7517647058824  5.8147853736089 11.2182352941176  5.8147853736089 10.7517647058824  C 5.8147853736089 11.2182352941176  5.8147853736089 10.7517647058824  5.8147853736089 10.7517647058824  Z M 6.27543720190779 11.2182352941176  C 6.27543720190779 11.6847058823529  6.27543720190779 11.6847058823529  6.27543720190779 11.2182352941176  C 6.73608903020668 11.6847058823529  6.73608903020668 11.6847058823529  6.27543720190779 11.2182352941176  C 6.73608903020668 11.2182352941176  6.73608903020668 11.2182352941176  6.27543720190779 11.2182352941176  Z M 6.73608903020668 10.7517647058824  C 7.19674085850557 10.7517647058824  7.19674085850557 10.7517647058824  6.73608903020668 10.7517647058824  C 7.19674085850557 10.7517647058824  7.19674085850557 10.7517647058824  6.73608903020668 10.7517647058824  Z M 6.73608903020668 10.7517647058824  C 6.73608903020668 10.2852941176471  6.73608903020668 10.2852941176471  6.73608903020668 10.7517647058824  Z M 6.73608903020668 10.2852941176471  C 6.27543720190779 10.2852941176471  6.73608903020668 10.2852941176471  6.73608903020668 10.2852941176471  C 6.73608903020668 10.2852941176471  6.27543720190779 10.2852941176471  6.73608903020668 10.2852941176471  C 6.27543720190779 10.2852941176471  6.27543720190779 10.2852941176471  6.73608903020668 10.2852941176471  C 6.27543720190779 10.2852941176471  6.27543720190779 10.2852941176471  6.73608903020668 10.2852941176471  Z M 6.27543720190779 10.2852941176471  C 6.27543720190779 10.7517647058824  6.27543720190779 10.7517647058824  6.27543720190779 10.2852941176471  C 6.27543720190779 10.7517647058824  6.27543720190779 10.7517647058824  6.27543720190779 10.2852941176471  C 5.8147853736089 10.7517647058824  5.8147853736089 10.7517647058824  6.27543720190779 10.2852941176471  Z M 6.73608903020668 10.2852941176471  C 7.19674085850557 10.7517647058824  7.19674085850557 10.7517647058824  6.73608903020668 10.2852941176471  C 6.73608903020668 10.7517647058824  6.73608903020668 11.2182352941176  6.73608903020668 11.2182352941176  C 6.73608903020668 11.2182352941176  6.27543720190779 11.2182352941176  6.27543720190779 11.2182352941176  C 6.27543720190779 11.2182352941176  5.8147853736089 11.2182352941176  5.8147853736089 11.2182352941176  C 5.8147853736089 11.2182352941176  5.8147853736089 10.7517647058824  5.8147853736089 10.7517647058824  C 5.8147853736089 10.7517647058824  5.8147853736089 10.2852941176471  5.8147853736089 10.2852941176471  C 6.27543720190779 10.2852941176471  6.27543720190779 10.2852941176471  6.73608903020668 10.2852941176471  Z M 15.9491255961844 9.81882352941177  C 15.9491255961844 9.35235294117647  15.4884737678855 9.35235294117647  15.0278219395866 9.35235294117647  C 14.5671701112878 9.35235294117647  14.1065182829889 9.35235294117647  14.1065182829889 9.81882352941177  C 13.64586645469 10.2852941176471  13.64586645469 10.2852941176471  13.64586645469 10.7517647058824  C 13.64586645469 11.2182352941176  13.64586645469 11.6847058823529  14.1065182829889 11.6847058823529  C 14.5671701112878 12.1511764705882  14.5671701112878 12.1511764705882  15.0278219395866 12.1511764705882  C 15.4884737678855 12.1511764705882  15.9491255961844 12.1511764705882  15.9491255961844 11.6847058823529  C 16.4097774244833 11.2182352941176  16.4097774244833 11.2182352941176  16.4097774244833 10.7517647058824  C 16.4097774244833 10.2852941176471  16.4097774244833 9.81882352941177  15.9491255961844 9.81882352941177  Z M 14.5671701112878 10.7517647058824  C 14.5671701112878 10.7517647058824  14.5671701112878 11.2182352941176  14.5671701112878 10.7517647058824  C 14.5671701112878 11.2182352941176  14.5671701112878 10.7517647058824  14.5671701112878 10.7517647058824  Z M 15.0278219395866 11.2182352941176  C 15.0278219395866 11.6847058823529  15.0278219395866 11.6847058823529  15.0278219395866 11.2182352941176  C 15.0278219395866 11.6847058823529  15.0278219395866 11.6847058823529  15.0278219395866 11.2182352941176  Z M 15.0278219395866 11.2182352941176  C 15.4884737678855 11.2182352941176  15.4884737678855 11.2182352941176  15.0278219395866 11.2182352941176  C 15.4884737678855 11.2182352941176  15.4884737678855 11.2182352941176  15.0278219395866 11.2182352941176  C 15.4884737678855 11.2182352941176  15.4884737678855 11.2182352941176  15.0278219395866 11.2182352941176  Z M 15.4884737678855 10.7517647058824  C 15.4884737678855 10.2852941176471  15.4884737678855 10.2852941176471  15.4884737678855 10.7517647058824  C 15.0278219395866 10.7517647058824  15.0278219395866 10.7517647058824  15.4884737678855 10.7517647058824  Z M 14.5671701112878 10.2852941176471  C 14.5671701112878 10.7517647058824  14.5671701112878 10.7517647058824  14.5671701112878 10.2852941176471  C 14.5671701112878 10.7517647058824  14.5671701112878 10.7517647058824  14.5671701112878 10.2852941176471  C 14.5671701112878 10.7517647058824  14.5671701112878 10.7517647058824  14.5671701112878 10.2852941176471  Z M 15.4884737678855 10.2852941176471  C 15.4884737678855 10.7517647058824  15.4884737678855 10.7517647058824  15.4884737678855 10.2852941176471  C 15.0278219395866 10.2852941176471  15.0278219395866 10.2852941176471  15.4884737678855 10.2852941176471  C 15.0278219395866 10.2852941176471  14.5671701112878 10.2852941176471  14.5671701112878 10.2852941176471  C 14.5671701112878 10.2852941176471  14.5671701112878 10.7517647058824  14.5671701112878 10.7517647058824  C 14.5671701112878 10.7517647058824  14.5671701112878 11.2182352941176  14.5671701112878 11.2182352941176  C 14.5671701112878 11.2182352941176  15.0278219395866 11.2182352941176  15.0278219395866 11.2182352941176  C 15.0278219395866 11.2182352941176  15.4884737678855 11.2182352941176  15.4884737678855 11.2182352941176  C 15.4884737678855 11.2182352941176  15.4884737678855 11.2182352941176  15.4884737678855 10.2852941176471  Z " fill-rule="nonzero" fill="#1e90fd" stroke="none" transform="matrix(1 0 0 1 26 253 )" />
  </g>
</svg>