<?xml version="1.0" encoding="utf-8"?>
<svg version="1.1" xmlns:xlink="http://www.w3.org/1999/xlink" width="35px" height="35px" xmlns="http://www.w3.org/2000/svg">
  <g transform="matrix(1 0 0 1 -76 -87 )">
    <path d="M 93.5 88  C 102.74 88  110 95.26  110 104.5  C 110 113.74  102.74 121  93.5 121  C 84.26 121  77 113.74  77 104.5  C 77 95.26  84.26 88  93.5 88  Z " fill-rule="nonzero" fill="#ffffff" stroke="none" />
    <path d="M 93.5 88  C 102.74 88  110 95.26  110 104.5  C 110 113.74  102.74 121  93.5 121  C 84.26 121  77 113.74  77 104.5  C 77 95.26  84.26 88  93.5 88  Z " stroke-width="2" stroke="#4588ee" fill="none" />
  </g>
</svg>