<?xml version="1.0" encoding="utf-8"?>
<svg version="1.1" xmlns:xlink="http://www.w3.org/1999/xlink" width="17px" height="14px" xmlns="http://www.w3.org/2000/svg">
  <g transform="matrix(1 0 0 1 -521 384 )">
    <path d="M 16.9575 12.5450980392157  C 16.9858333333333 12.4078431372549  16.8725 12.2980392156863  16.7308333333333 12.2980392156863  L 14.9175 12.2980392156863  L 15.8525 11.1725490196078  C 15.9375 11.0627450980392  15.9941666666667 10.9254901960784  15.9941666666667 10.7607843137255  L 15.9941666666667 4.09019607843137  C 15.9658333333333 3.62352941176471  15.2291666666667 3.23921568627451  14.3225 3.23921568627451  C 13.9825 3.23921568627451  13.6708333333333 3.29411764705882  13.4158333333333 3.37647058823529  L 13.4158333333333 10.156862745098  C 13.4158333333333 10.321568627451  13.3591666666667 10.4588235294118  13.2741666666667 10.5960784313725  L 12.9341666666667 11.0078431372549  C 12.8775 11.0901960784314  12.8775 11.2  12.9341666666667 11.3098039215686  L 13.7275 12.2980392156863  L 10.5541666666667 12.2980392156863  L 12.1691666666667 10.4588235294118  C 12.3391666666667 10.2666666666667  12.4241666666667 10.0470588235294  12.4241666666667 9.8  L 12.4241666666667 1.18039215686275  C 12.3958333333333 0.631372549019608  11.4608333333333 0.192156862745098  10.2708333333333 0.192156862745098  C 9.08083333333333 0.192156862745098  8.14583333333333 0.631372549019608  8.1175 1.18039215686275  L 8.1175 7.05490196078432  L 6.0775 7.05490196078432  L 6.0775 6.12156862745098  C 6.0775 5.9843137254902  5.96416666666667 5.87450980392157  5.8225 5.87450980392157  L 1.7425 5.87450980392157  C 1.60083333333333 5.87450980392157  1.4875 5.9843137254902  1.4875 6.12156862745098  L 1.4875 12.2980392156863  L 0.410833333333333 12.2980392156863  C 0.269166666666666 12.2980392156863  0.155833333333334 12.4078431372549  0.155833333333334 12.5450980392157  L 0.155833333333334 13.5882352941176  C 0.155833333333334 13.7254901960784  0.269166666666666 13.8352941176471  0.410833333333333 13.8352941176471  L 16.7025 13.8352941176471  C 16.8441666666667 13.8352941176471  16.9575 13.7254901960784  16.9575 13.5882352941176  L 16.9575 12.5450980392157  Z M 6.0775 7.82352941176471  L 8.1175 7.82352941176471  L 8.1175 9.36078431372549  L 6.0775 9.36078431372549  L 6.0775 7.82352941176471  Z M 2.6775 7.85098039215686  L 2.6775 7.08235294117647  C 2.6775 6.94509803921569  2.79083333333333 6.83529411764706  2.9325 6.83529411764706  L 4.6325 6.83529411764706  C 4.77416666666666 6.83529411764706  4.8875 6.94509803921569  4.8875 7.08235294117647  L 4.8875 7.85098039215686  C 4.8875 7.98823529411765  4.77416666666666 8.09803921568627  4.6325 8.09803921568627  L 2.9325 8.09803921568627  C 2.79083333333333 8.09803921568627  2.6775 7.98823529411765  2.6775 7.85098039215686  Z M 2.6775 10.0470588235294  L 2.6775 9.27843137254902  C 2.6775 9.14117647058823  2.79083333333333 9.03137254901961  2.9325 9.03137254901961  L 4.6325 9.03137254901961  C 4.77416666666666 9.03137254901961  4.8875 9.14117647058823  4.8875 9.27843137254902  L 4.8875 10.0470588235294  C 4.8875 10.1843137254902  4.77416666666666 10.2941176470588  4.6325 10.2941176470588  L 2.9325 10.2941176470588  C 2.79083333333333 10.2941176470588  2.6775 10.1843137254902  2.6775 10.0470588235294  Z M 6.0775 12.2980392156863  L 6.0775 10.156862745098  L 8.17416666666666 10.156862745098  C 8.23083333333333 10.2666666666667  8.2875 10.3764705882353  8.3725 10.4588235294118  L 9.9875 12.2980392156863  L 6.0775 12.2980392156863  Z " fill-rule="nonzero" fill="#ffffff" stroke="none" transform="matrix(1 0 0 1 521 -384 )" />
  </g>
</svg>