<?xml version="1.0" encoding="utf-8"?>
<svg version="1.1" xmlns:xlink="http://www.w3.org/1999/xlink" width="17px" height="10px" xmlns="http://www.w3.org/2000/svg">
  <g transform="matrix(1 0 0 1 -175 631 )">
    <path d="M 15 2.41176470588235  L 0.323308270676691 2.41176470588235  L 0.323308270676691 8.45510835913313  C 0.323308270676691 9.19814241486068  1.04511278195489 9.79256965944273  1.94736842105263 9.79256965944273  L 2.7593984962406 9.79256965944273  L 2.7593984962406 7.24148606811145  C 2.72932330827068 5.01238390092879  4.86466165413534 3.15479876160991  7.57142857142857 3.08049535603715  C 10.2781954887218 3.03095975232198  12.5037593984962 4.81424148606811  12.5639097744361 7.04334365325077  C 12.5639097744361 7.06811145510836  12.5639097744361 7.09287925696594  12.5639097744361 7.11764705882353  L 12.5639097744361 9.81733746130031  L 13.3759398496241 9.81733746130031  C 14.2781954887218 9.81733746130031  15 9.22291021671827  15 8.47987616099071  L 15 2.41176470588235  Z M 0.593984962406018 1.71826625386997  L 14.7894736842105 1.71826625386997  C 14.5187969924812 1.29721362229102  13.9774436090226 1.04953560371517  13.406015037594 1  L 1.97744360902256 1  C 1.40601503759399 1.04953560371517  0.864661654135341 1.29721362229102  0.593984962406018 1.71826625386997  Z " fill-rule="nonzero" fill="#ffffff" stroke="none" transform="matrix(1 0 0 1 175 -631 )" />
  </g>
</svg>