<?xml version="1.0" encoding="utf-8"?>
<svg version="1.1" xmlns:xlink="http://www.w3.org/1999/xlink" width="10px" height="17px" xmlns="http://www.w3.org/2000/svg">
  <g transform="matrix(1 0 0 1 -349 671 )">
    <path d="M 8.59523809523809 0.914393939393939  C 9.09285714285714 0.91439393939394  9.5 1.35484848484849  9.5 1.89318181818182  L 9.5 11.6810606060606  L 6.33333333333333 11.6810606060606  C 5.1797619047619 11.6810606060606  4.16190476190476 12.4640909090909  3.77738095238095 13.6386363636364  C 3.66428571428571 13.9567424242424  3.61904761904762 14.2748484848485  3.61904761904762 14.6174242424242  L 3.61904761904762 15.1068181818182  C 3.61904761904762 15.3759848484848  3.41547619047619 15.5962121212121  3.16666666666667 15.5962121212121  L 1.35714285714286 15.5962121212121  C 0.859523809523809 15.5962121212121  0.452380952380952 15.1557575757576  0.452380952380952 14.6174242424242  L 0.452380952380952 12.6598484848485  C 0.452380952380952 12.3906818181818  0.655952380952381 12.1704545454545  0.904761904761905 12.1704545454545  C 1.15357142857143 12.1704545454545  1.35714285714286 11.9502272727273  1.35714285714286 11.6810606060606  L 1.35714285714286 7.37439393939394  C 1.35714285714286 7.32545454545454  1.35714285714286 7.25204545454545  1.3797619047619 7.20310606060606  L 1.83214285714286 5.90621212121212  L 3.12142857142857 2.26022727272727  L 3.3702380952381 1.55060606060606  C 3.50595238095238 1.18356060606061  3.84523809523809 0.914393939393939  4.20714285714286 0.914393939393939  L 8.59523809523809 0.914393939393939  Z " fill-rule="nonzero" fill="#5aaae7" stroke="none" transform="matrix(1 0 0 1 349 -671 )" />
  </g>
</svg>