<?xml version="1.0" encoding="utf-8"?>
<svg version="1.1" xmlns:xlink="http://www.w3.org/1999/xlink" width="8px" height="8px" xmlns="http://www.w3.org/2000/svg">
  <g transform="matrix(1 0 0 1 -348 670 )">
    <path d="M 2.59666666666667 6.52777777777778  L 2.82888888888889 7.37222222222222  C 2.89222222222222 7.60444444444445  2.74444444444444 7.83666666666667  2.51222222222222 7.87888888888889  C 2.47 7.87888888888889  2.44888888888889 7.9  2.40666666666667 7.9  L 1.26666666666667 7.9  L 1.26666666666667 6.21111111111111  L 2.19555555555556 6.21111111111111  C 2.38555555555556 6.21111111111111  2.55444444444444 6.33777777777778  2.59666666666667 6.52777777777778  Z M 3.54666666666667 0.84888888888889  C 3.99 1.01777777777778  4.20111111111111 1.50333333333333  4.03222222222222 1.92555555555556  L 3.69444444444444 2.83333333333333  L 3.44111111111111 3.50888888888889  C 3.27222222222222 3.95222222222222  2.78666666666667 4.16333333333333  2.36444444444444 3.99444444444444  L 1.75222222222222 3.76222222222222  L 2.09 2.83333333333333  L 2.93444444444444 0.616666666666667  L 3.54666666666667 0.84888888888889  Z M 6.75555555555556 1.14444444444444  C 6.98777777777778 1.14444444444444  7.17777777777778 1.33444444444444  7.17777777777778 1.56666666666667  L 7.17777777777778 4.1  C 7.17777777777778 4.33222222222222  6.98777777777778 4.52222222222222  6.75555555555556 4.52222222222222  L 5.25666666666667 4.52222222222222  C 5.02444444444444 4.52222222222222  4.83444444444444 4.33222222222222  4.83444444444444 4.1  C 4.83444444444444 4.05777777777778  4.83444444444444 3.99444444444444  4.85555555555556 3.95222222222222  L 5.27777777777778 2.83333333333333  L 5.80555555555555 1.41888888888889  C 5.86888888888889 1.25  6.01666666666667 1.14444444444444  6.20666666666667 1.14444444444444  L 6.75555555555556 1.14444444444444  Z " fill-rule="nonzero" fill="#e6e7e8" stroke="none" transform="matrix(1 0 0 1 348 -670 )" />
  </g>
</svg>