<?xml version="1.0" encoding="utf-8"?>
<svg version="1.1" xmlns:xlink="http://www.w3.org/1999/xlink" width="19px" height="3px" xmlns="http://www.w3.org/2000/svg">
  <g transform="matrix(1 0 0 1 -357 659 )">
    <path d="M 16.6858974358974 1.45125  L 15.9222435897436 0.2875  L 18.074358974359 0.2875  C 18.3289102564103 0.2875  18.5371794871795 0.501249999999997  18.5371794871795 0.762499999999999  L 18.5371794871795 1.7125  C 18.5371794871795 1.97375  18.3289102564103 2.1875  18.074358974359 2.1875  L 16.2925 2.1875  C 16.5470512820513 2.1875  16.7553205128205 1.97375  16.7553205128205 1.7125  C 16.7553205128205 1.6175  16.7321794871795 1.5225  16.6858974358974 1.45125  Z M 0.949999999999999 0.2875  L 5.57820512820513 0.2875  L 10.0444230769231 0.2875  L 9.28076923076923 1.45125  C 9.14192307692308 1.665  9.18820512820513 1.95  9.39647435897436 2.11625  C 9.46589743589743 2.16375  9.55846153846154 2.1875  9.65102564102564 2.1875  L 7.42948717948718 2.1875  C 7.42948717948718 1.92625  7.22121794871795 1.7125  6.96666666666667 1.7125  L 3.26410256410256 1.7125  C 3.00955128205128 1.7125  2.80128205128205 1.92625  2.80128205128205 2.1875  L 0.949999999999999 2.1875  L 0.949999999999999 0.2875  Z " fill-rule="nonzero" fill="#3d9ae2" stroke="none" transform="matrix(1 0 0 1 357 -659 )" />
  </g>
</svg>