<?xml version="1.0" encoding="utf-8"?>
<svg version="1.1" xmlns:xlink="http://www.w3.org/1999/xlink" width="8px" height="5px" xmlns="http://www.w3.org/2000/svg">
  <g transform="matrix(1 0 0 1 -366 659 )">
    <path d="M 7.28555555555555 3.56944444444444  C 7.28555555555555 3.46388888888889  7.24333333333333 3.35833333333333  7.20111111111111 3.27916666666667  L 6.50444444444445 1.98611111111111  L 6.18777777777778 1.40555555555555  C 6.12444444444445 1.27361111111111  6.04 1.16805555555555  5.93444444444444 1.08888888888889  C 5.80777777777778 0.98333333333333  5.63888888888889 0.930555555555553  5.49111111111111 0.930555555555553  L 2.17666666666666 0.930555555555553  C 1.90222222222222 0.930555555555553  1.62777777777778 1.11527777777778  1.48 1.40555555555555  L 1.16333333333333 1.98611111111111  L 0.466666666666666 3.27916666666667  C 0.340000000000001 3.51666666666667  0.38222222222222 3.83333333333333  0.572222222222221 4.01805555555555  C 0.635555555555553 4.07083333333333  0.719999999999999 4.09722222222222  0.804444444444442 4.09722222222222  L 5.74444444444444 4.09722222222222  C 5.74444444444444 4.09722222222222  5.74444444444444 4.12361111111111  5.76555555555556 4.12361111111111  L 5.95555555555555 4.09722222222222  L 6.86333333333333 4.09722222222222  C 7.09555555555555 4.09722222222222  7.28555555555555 3.85972222222222  7.28555555555555 3.56944444444444  Z " fill-rule="nonzero" fill="#5aaae7" stroke="none" transform="matrix(1 0 0 1 366 -659 )" />
  </g>
</svg>