<?xml version="1.0" encoding="utf-8"?>
<svg version="1.1" xmlns:xlink="http://www.w3.org/1999/xlink" width="25px" height="19px" xmlns="http://www.w3.org/2000/svg">
  <g transform="matrix(1 0 0 1 -353 673 )">
    <path d="M 24.2825520833333 3.55275641025641  L 24.0104166666667 3.8998717948718  L 23.3919270833333 4.66352564102564  L 21.06640625 0.891538461538462  L 22.55078125 0.729551282051283  C 22.9466145833333 0.683269230769231  23.3177083333333 0.868397435897437  23.515625 1.1923717948718  L 24.3567708333333 2.53455128205128  C 24.5546875 2.85852564102564  24.5299479166667 3.25192307692308  24.2825520833333 3.55275641025641  Z M 5.50520833333333 15.2852564102564  C 5.62890625 15.5860897435897  5.703125 15.8869230769231  5.703125 16.2108974358974  C 5.703125 17.4836538461538  4.58984375 18.525  3.22916666666667 18.525  C 1.86848958333333 18.525  0.755208333333333 17.4836538461538  0.755208333333333 16.2108974358974  C 0.755208333333333 15.8869230769231  0.829427083333333 15.5860897435897  0.953125 15.2852564102564  C 1.49739583333333 14.1050641025641  2.98177083333333 13.5728205128205  4.21875 14.0819230769231  C 4.78776041666667 14.3133333333333  5.23307291666667 14.7530128205128  5.50520833333333 15.2852564102564  Z M 19.5325520833333 14.0819230769231  C 20.4479166666667 14.4521794871795  21.0416666666667 15.2852564102564  21.0416666666667 16.2108974358974  C 21.0416666666667 17.4836538461538  19.9283854166667 18.525  18.5677083333333 18.525  C 17.20703125 18.525  16.09375 17.4836538461538  16.09375 16.2108974358974  C 16.09375 15.8869230769231  16.16796875 15.5860897435897  16.2916666666667 15.2852564102564  C 16.8359375 14.1050641025641  18.2955729166667 13.5728205128205  19.5325520833333 14.0819230769231  Z " fill-rule="nonzero" fill="#57565c" stroke="none" transform="matrix(1 0 0 1 353 -673 )" />
  </g>
</svg>