<?xml version="1.0" encoding="utf-8"?>
<svg version="1.1" xmlns:xlink="http://www.w3.org/1999/xlink" width="13px" height="13px" xmlns="http://www.w3.org/2000/svg">
  <g transform="matrix(1 0 0 1 -361 673 )">
    <path d="M 12.935 5.2365625  L 10.8080555555556 0.991250000000001  L 6.23398148148148 1.60875  C 5.98240740740741 1.63447916666667  5.7537037037037 1.73739583333333  5.525 1.86604166666667  L 4.29 2.66364583333333  L 2.00296296296296 4.1559375  C 1.65990740740741 4.36177083333333  1.40833333333333 4.69625  1.24824074074074 5.0821875  L 0.493518518518519 6.9346875  L 0.447777777777776 7.06333333333333  C 0.0818518518518492 7.96385416666667  0.127592592592592 9.01875  0.562129629629629 9.89354166666667  L 0.973796296296293 10.716875  C 1.40833333333333 11.5916666666667  2.2087962962963 12.1577083333333  3.07787037037037 12.2348958333333  L 4.63305555555555 12.415  L 4.99898148148148 12.4664583333333  C 5.38777777777778 12.5179166666667  5.7537037037037 12.415  6.09675925925925 12.2091666666667  L 7.69768518518518 11.18  L 9.61879629629629 9.91927083333334  C 9.82462962962963 9.790625  10.030462962963 9.58479166666667  10.1676851851852 9.37895833333334  L 10.7623148148148 8.50416666666667  L 12.6148148148148 5.6996875  L 12.935 5.2365625  Z " fill-rule="nonzero" fill="#acabb1" stroke="none" transform="matrix(1 0 0 1 361 -673 )" />
  </g>
</svg>