<?xml version="1.0" encoding="utf-8"?>
<svg version="1.1" xmlns:xlink="http://www.w3.org/1999/xlink" width="17px" height="5px" xmlns="http://www.w3.org/2000/svg">
  <g transform="matrix(1 0 0 1 -354 659 )">
    <path d="M 2.85694444444444 1.81944444444444  C 2.85694444444444 0.94861111111111  2.25131944444444 0.23611111111111  1.51111111111111 0.23611111111111  C 0.770902777777777 0.23611111111111  0.165277777777777 0.94861111111111  0.165277777777777 1.81944444444444  C 0.165277777777777 2.69027777777778  0.770902777777777 3.40277777777778  1.51111111111111 3.40277777777778  C 2.25131944444444 3.40277777777778  2.85694444444444 2.69027777777778  2.85694444444444 1.81944444444444  Z M 1.95972222222222 1.81944444444444  C 1.95972222222222 2.10972222222222  1.75784722222222 2.34722222222222  1.51111111111111 2.34722222222222  C 1.264375 2.34722222222222  1.0625 2.10972222222222  1.0625 1.81944444444444  C 1.0625 1.52916666666667  1.264375 1.29166666666666  1.51111111111111 1.29166666666666  C 1.75784722222222 1.29166666666666  1.95972222222222 1.52916666666667  1.95972222222222 1.81944444444444  Z M 16.7638888888889 1.81944444444444  C 16.7638888888889 0.94861111111111  16.1582638888889 0.23611111111111  15.4180555555556 0.23611111111111  C 14.6778472222222 0.23611111111111  14.0722222222222 0.94861111111111  14.0722222222222 1.81944444444444  C 14.0722222222222 2.69027777777778  14.6778472222222 3.40277777777778  15.4180555555556 3.40277777777778  C 16.1582638888889 3.40277777777778  16.7638888888889 2.69027777777778  16.7638888888889 1.81944444444444  Z M 15.8666666666667 1.81944444444444  C 15.8666666666667 2.10972222222222  15.6647916666667 2.34722222222222  15.4180555555556 2.34722222222222  C 15.1713194444444 2.34722222222222  14.9694444444444 2.10972222222222  14.9694444444444 1.81944444444444  C 14.9694444444444 1.52916666666667  15.1713194444444 1.29166666666666  15.4180555555556 1.29166666666666  C 15.6647916666667 1.29166666666666  15.8666666666667 1.52916666666667  15.8666666666667 1.81944444444444  Z " fill-rule="nonzero" fill="#000000" stroke="none" transform="matrix(1 0 0 1 354 -659 )" />
  </g>
</svg>