<?xml version="1.0" encoding="utf-8"?>
<svg version="1.1" xmlns:xlink="http://www.w3.org/1999/xlink" width="5px" height="6px" xmlns="http://www.w3.org/2000/svg">
  <g transform="matrix(1 0 0 1 -353 670 )">
    <path d="M 1.20138888888889 4.393  C 1.30694444444444 4.431  1.43888888888889 4.45  1.57083333333333 4.45  L 3.44444444444444 4.45  C 4.025 4.45  4.5 4.108  4.5 3.69  L 4.5 1.41  C 4.5 0.992  4.025 0.65  3.44444444444444 0.65  L 2.75833333333333 0.65  C 2.30972222222222 0.65  1.91388888888889 0.84  1.78194444444444 1.144  L 0.594444444444444 3.424  C 0.383333333333333 3.823  0.67361111111111 4.26  1.20138888888889 4.393  Z M 1.57083333333333 3.69  L 2.75833333333333 1.41  L 3.44444444444444 1.41  L 3.44444444444444 3.69  L 1.57083333333333 3.69  Z M 2.38888888888889 5.97  L 2.38888888888889 5.21  L 4.5 5.21  L 4.5 5.97  L 2.38888888888889 5.97  Z " fill-rule="nonzero" fill="#000000" stroke="none" transform="matrix(1 0 0 1 353 -670 )" />
  </g>
</svg>