<?xml version="1.0" encoding="utf-8"?>
<svg version="1.1" xmlns:xlink="http://www.w3.org/1999/xlink" width="28px" height="19px" xmlns="http://www.w3.org/2000/svg">
  <g transform="matrix(1 0 0 1 -349 673 )">
    <path d="M 27.5333333333333 5.56602564102564  L 28 5.56602564102564  L 28 4.64038461538462  L 27.5333333333333 4.64038461538462  L 27.5333333333333 4.06185897435897  L 27.6966666666667 3.83044871794872  C 28.0233333333333 3.39076923076923  28.07 2.78910256410256  27.79 2.30314102564103  L 26.9966666666667 0.960961538461539  C 26.7166666666667 0.475000000000001  26.18 0.220448717948719  25.62 0.289871794871796  L 19.5533333333333 1.00724358974359  C 19.25 1.05352564102564  18.9466666666667 1.14608974358974  18.6666666666667 1.30807692307692  L 17.6633333333333 1.88660256410256  L 14.42 1.49320512820513  C 14.21 0.498141025641026  13.23 -0.149807692307692  12.2266666666667 0.0584615384615391  C 11.3633333333333 0.220448717948719  10.7333333333333 0.984102564102565  10.7333333333333 1.86346153846154  C 10.7333333333333 2.51141025641026  11.0833333333333 3.11307692307692  11.6666666666667 3.46019230769231  L 11.2233333333333 4.9875  L 11.2 9.26858974358974  L 10.2666666666667 9.26858974358974  L 10.2666666666667 3.25192307692308  C 10.2666666666667 2.48826923076923  9.63666666666666 1.86346153846154  8.86666666666667 1.86346153846154  L 4.36333333333333 1.86346153846154  C 3.78 1.86346153846154  3.26666666666667 2.21057692307692  3.05666666666667 2.74282051282051  L 1.00333333333333 8.06525641025641  C 0.956666666666666 8.18096153846154  0.933333333333333 8.29666666666667  0.933333333333333 8.43551282051282  L 0.933333333333333 12.5083333333333  C 0.42 12.5083333333333  0 12.9248717948718  0 13.4339743589744  L 0 15.2852564102564  C 0 16.0489102564103  0.63 16.6737179487179  1.4 16.6737179487179  L 3.26666666666667 16.6737179487179  C 3.78 16.6737179487179  4.2 16.2571794871795  4.2 15.7480769230769  L 4.71333333333333 15.7480769230769  C 4.69 15.9100641025641  4.66666666666667 16.0489102564103  4.66666666666667 16.2108974358974  C 4.66666666666667 17.7382051282051  5.92666666666667 18.9878205128205  7.46666666666667 18.9878205128205  C 9.00666666666667 18.9878205128205  10.2666666666667 17.7382051282051  10.2666666666667 16.2108974358974  C 10.2666666666667 16.0489102564103  10.2433333333333 15.9100641025641  10.22 15.7480769230769  L 11.2 15.7480769230769  L 11.2 17.1365384615385  C 11.2 17.645641025641  11.62 18.0621794871795  12.1333333333333 18.0621794871795  L 15.8666666666667 18.0621794871795  C 16.38 18.0621794871795  16.8 17.645641025641  16.8 17.1365384615385  L 16.8 15.7480769230769  L 19.18 15.7480769230769  C 19.1566666666667 15.9100641025641  19.1333333333333 16.0489102564103  19.1333333333333 16.2108974358974  C 19.1333333333333 17.7382051282051  20.3933333333333 18.9878205128205  21.9333333333333 18.9878205128205  C 23.4733333333333 18.9878205128205  24.7333333333333 17.7382051282051  24.7333333333333 16.2108974358974  C 24.7333333333333 16.0489102564103  24.71 15.9100641025641  24.6866666666667 15.7480769230769  L 27.0666666666667 15.7480769230769  C 27.58 15.7480769230769  28 15.3315384615385  28 14.8224358974359  L 28 13.8967948717949  C 28 13.5728205128205  27.8133333333333 13.2719871794872  27.5333333333333 13.11  L 27.5333333333333 11.1198717948718  L 28 11.1198717948718  L 28 10.1942307692308  L 27.5333333333333 10.1942307692308  L 27.5333333333333 8.34294871794872  L 28 8.34294871794872  L 28 7.41730769230769  L 27.5333333333333 7.41730769230769  L 27.5333333333333 5.56602564102564  Z M 2.52 6.76935897435898  L 3.52333333333333 4.1775641025641  L 3.75666666666667 4.27012820512821  C 3.99 4.36269230769231  4.13 4.64038461538462  4.03666666666667 4.87179487179487  L 3.36 6.6073717948718  C 3.31333333333333 6.72307692307692  3.22 6.81564102564103  3.12666666666667 6.86192307692308  C 3.01 6.90820512820513  2.89333333333333 6.90820512820513  2.77666666666667 6.86192307692308  L 2.52 6.76935897435898  Z M 1.86666666666667 11.1198717948718  L 1.86666666666667 10.1942307692308  L 2.42666666666667 10.1942307692308  L 2.66 11.1198717948718  L 1.86666666666667 11.1198717948718  Z M 9.33333333333333 16.2108974358974  C 9.33333333333333 17.2291025641026  8.49333333333333 18.0621794871795  7.46666666666667 18.0621794871795  C 6.44 18.0621794871795  5.6 17.2291025641026  5.6 16.2108974358974  C 5.6 15.1926923076923  6.44 14.3596153846154  7.46666666666667 14.3596153846154  C 8.49333333333333 14.3596153846154  9.33333333333333 15.1926923076923  9.33333333333333 16.2108974358974  Z M 9.33333333333333 12.9942948717949  L 9.33333333333333 14.1513461538462  C 8.19 13.133141025641  6.41666666666667 13.2257051282051  5.39 14.3596153846154  C 5.25 14.4984615384615  5.13333333333333 14.6604487179487  5.04 14.8455769230769  L 4.24666666666667 14.8455769230769  C 4.48 13.7810897435897  5.43666666666667 12.9942948717949  6.53333333333333 12.9942948717949  L 9.33333333333333 12.9942948717949  Z M 9.33333333333333 3.25192307692308  L 9.33333333333333 12.0455128205128  L 6.53333333333333 12.0455128205128  C 4.73666666666667 12.0455128205128  3.26666666666667 13.5033974358974  3.26666666666667 15.2852564102564  L 3.26666666666667 15.7480769230769  L 1.4 15.7480769230769  C 1.14333333333333 15.7480769230769  0.933333333333333 15.5398076923077  0.933333333333333 15.2852564102564  L 0.933333333333333 13.4339743589744  C 1.44666666666667 13.4339743589744  1.86666666666667 13.0174358974359  1.86666666666667 12.5083333333333  L 1.86666666666667 12.0455128205128  L 2.66 12.0455128205128  C 3.17333333333333 12.0455128205128  3.59333333333333 11.6289743589744  3.59333333333333 11.1198717948718  C 3.59333333333333 11.0504487179487  3.59333333333333 10.9578846153846  3.57 10.8884615384615  L 3.33666666666667 9.96282051282051  C 3.24333333333333 9.54628205128205  2.87 9.26858974358974  2.42666666666667 9.26858974358974  L 1.86666666666667 9.26858974358974  L 1.86666666666667 8.43551282051282  L 2.17 7.64871794871795  L 2.40333333333333 7.74128205128205  C 2.56666666666667 7.81070512820513  2.73 7.83384615384615  2.91666666666667 7.83384615384615  C 3.10333333333333 7.83384615384615  3.31333333333333 7.7875641025641  3.47666666666667 7.71814102564103  C 3.80333333333333 7.55615384615384  4.08333333333333 7.27846153846154  4.2 6.95448717948718  L 4.87666666666667 5.21891025641026  C 5.15666666666667 4.50153846153846  4.78333333333333 3.71474358974359  4.06 3.43705128205128  L 3.80333333333333 3.34448717948718  L 3.89666666666666 3.0899358974359  C 3.96666666666667 2.90480769230769  4.13 2.78910256410256  4.31666666666667 2.78910256410256  L 8.86666666666667 2.78910256410256  C 9.12333333333333 2.78910256410256  9.33333333333333 2.99737179487179  9.33333333333333 3.25192307692308  Z M 25.0366666666667 1.2849358974359  L 25.7366666666667 1.1923717948718  C 25.76 1.1923717948718  25.7833333333333 1.1923717948718  25.7833333333333 1.1923717948718  C 25.9466666666667 1.1923717948718  26.11 1.2849358974359  26.18 1.42378205128205  L 26.9733333333333 2.76596153846154  C 27.0666666666667 2.92794871794872  27.0433333333333 3.13621794871795  26.95 3.2750641025641  L 26.6233333333333 3.71474358974359  L 26.6 3.71474358974359  L 26.6 3.76102564102564  L 26.53 3.85358974358974  L 25.0366666666667 1.2849358974359  Z M 26.6 10.1942307692308  L 24.7333333333333 10.1942307692308  L 24.7333333333333 8.34294871794872  L 26.6 8.34294871794872  L 26.6 10.1942307692308  Z M 24.71 11.1198717948718  L 26.6 11.1198717948718  L 26.6 12.9711538461538  L 25.13 12.9711538461538  L 24.92 12.6703205128205  C 24.8733333333333 12.5777564102564  24.8033333333333 12.5083333333333  24.71 12.4389102564103  L 24.71 11.1198717948718  Z M 26.6 7.41730769230769  L 24.99 7.41730769230769  L 26.39 5.56602564102564  L 26.6 5.56602564102564  L 26.6 7.41730769230769  Z M 25.2233333333333 5.56602564102564  L 24.7333333333333 6.21397435897436  L 24.7333333333333 5.56602564102564  L 25.2233333333333 5.56602564102564  Z M 15.5633333333333 4.15442307692308  L 19.1333333333333 2.07173076923077  C 19.2966666666667 1.97916666666667  19.4833333333333 1.90974358974359  19.67 1.88660256410256  L 24.0333333333333 1.40064102564103  L 25.9233333333333 4.64038461538462  L 24.7333333333333 4.64038461538462  L 24.7333333333333 3.71474358974359  L 23.8 3.71474358974359  L 23.8 7.46358974358975  L 23.2866666666667 8.13467948717949  C 23.17 8.27352564102564  23.03 8.4123717948718  22.8666666666667 8.5049358974359  L 19.2733333333333 10.5644871794872  C 19.0166666666667 10.7033333333333  18.7366666666667 10.7727564102564  18.4333333333333 10.7496153846154  L 16.4733333333333 10.5644871794872  C 15.7266666666667 10.4950641025641  15.05 10.0553846153846  14.6766666666667 9.4074358974359  L 14.2566666666667 8.66692307692308  C 13.8833333333333 8.01897435897436  13.8366666666667 7.23217948717949  14.1633333333333 6.56108974358974  L 14.98 4.77923076923077  C 15.0966666666667 4.52467948717949  15.3066666666667 4.29326923076923  15.5633333333333 4.15442307692308  Z M 23.3566666666667 9.29173076923077  C 23.52 9.19916666666667  23.66 9.08346153846154  23.8 8.94461538461539  L 23.8 12.0455128205128  C 23.8 12.0455128205128  23.7766666666667 12.0455128205128  23.7766666666667 12.0455128205128  L 23.38 12.0455128205128  L 21.8633333333333 10.1479487179487  L 23.3566666666667 9.29173076923077  Z M 13.1133333333333 6.72307692307692  C 12.9033333333333 7.55615384615385  13.02 8.4123717948718  13.44 9.12974358974359  L 13.86 9.87025641025641  C 14.3966666666667 10.7727564102564  15.33 11.3744230769231  16.38 11.4669871794872  L 17.3366666666667 11.5595512820513  L 16.7066666666667 12.9711538461538  L 14.7233333333333 12.9711538461538  L 12.39 9.26858974358974  L 12.1333333333333 9.26858974358974  L 12.1333333333333 5.17262820512821  L 12.4366666666667 4.085  L 13.1133333333333 6.72307692307692  Z M 13.2766666666667 3.57589743589744  C 13.79 3.36762820512821  14.21 2.95108974358974  14.3733333333333 2.41884615384615  L 16.31 2.62711538461539  L 15.0733333333333 3.34448717948718  C 14.6533333333333 3.57589743589744  14.3033333333333 3.94615384615385  14.1166666666667 4.38583333333333  L 13.6966666666667 5.28833333333333  L 13.2766666666667 3.57589743589744  Z M 11.6666666666667 1.86346153846154  C 11.6666666666667 1.35435897435898  12.0866666666667 0.937820512820513  12.6 0.937820512820513  C 13.1133333333333 0.937820512820513  13.5333333333333 1.35435897435898  13.5333333333333 1.86346153846154  C 13.5333333333333 2.3725641025641  13.1133333333333 2.78910256410256  12.6 2.78910256410256  C 12.0866666666667 2.78910256410256  11.6666666666667 2.3725641025641  11.6666666666667 1.86346153846154  Z M 10.2666666666667 12.9711538461538  L 10.2666666666667 10.1942307692308  L 11.8766666666667 10.1942307692308  L 13.6266666666667 12.9711538461538  L 10.2666666666667 12.9711538461538  Z M 15.8666666666667 15.2852564102564  L 15.8666666666667 17.1365384615385  L 12.1333333333333 17.1365384615385  L 12.1333333333333 15.2852564102564  L 15.8666666666667 15.2852564102564  Z M 18.1066666666667 13.8967948717949  L 17.8266666666667 14.3133333333333  C 17.7333333333333 14.4753205128205  17.6866666666667 14.6373076923077  17.6866666666667 14.8224358974359  L 16.6833333333333 14.8224358974359  C 16.52 14.5447435897436  16.2166666666667 14.3596153846154  15.89 14.3596153846154  L 12.1333333333333 14.3596153846154  C 11.8066666666667 14.3596153846154  11.5033333333333 14.5447435897436  11.34 14.8224358974359  L 10.2666666666667 14.8224358974359  L 10.2666666666667 13.8967948717949  L 18.1066666666667 13.8967948717949  Z M 18.7366666666667 12.9711538461538  L 17.7333333333333 12.9711538461538  L 18.3166666666667 11.6521153846154  L 18.3633333333333 11.6521153846154  C 18.4333333333333 11.6521153846154  18.5266666666667 11.6521153846154  18.5966666666667 11.6521153846154  C 18.9933333333333 11.6521153846154  19.4133333333333 11.5364102564103  19.7633333333333 11.3512820512821  L 21.0466666666667 10.6107692307692  L 22.1666666666667 12.0455128205128  L 20.09 12.0455128205128  C 19.6233333333333 12.0455128205128  19.18 12.2769230769231  18.9233333333333 12.6703205128205  L 18.7366666666667 12.9711538461538  Z M 23.8 16.2108974358974  C 23.8 17.2291025641026  22.96 18.0621794871795  21.9333333333333 18.0621794871795  C 20.9066666666667 18.0621794871795  20.0666666666667 17.2291025641026  20.0666666666667 16.2108974358974  C 20.0666666666667 15.1926923076923  20.9066666666667 14.3596153846154  21.9333333333333 14.3596153846154  C 22.96 14.3596153846154  23.8 15.1926923076923  23.8 16.2108974358974  Z M 25.2466666666667 14.8224358974359  L 24.36 14.8224358974359  C 23.59 13.5033974358974  21.8866666666667 13.0405769230769  20.5333333333333 13.8042307692308  C 20.1133333333333 14.058782051282  19.7633333333333 14.4058974358974  19.5066666666667 14.8224358974359  L 18.5966666666667 14.8224358974359  L 19.6933333333333 13.1794230769231  C 19.7866666666667 13.0405769230769  19.9266666666667 12.9711538461538  20.09 12.9711538461538  L 23.7533333333333 12.9711538461538  C 23.9166666666667 12.9711538461538  24.0566666666667 13.0405769230769  24.15 13.1794230769231  L 25.2466666666667 14.8224358974359  Z M 27.0666666666667 13.8967948717949  L 27.0666666666667 14.8224358974359  L 26.18 14.8224358974359  C 26.18 14.6373076923077  26.1333333333333 14.4521794871795  26.04 14.3133333333333  L 25.76 13.8967948717949  L 27.0666666666667 13.8967948717949  Z " fill-rule="nonzero" fill="#000000" stroke="none" transform="matrix(1 0 0 1 349 -673 )" />
  </g>
</svg>