<?xml version="1.0" encoding="utf-8"?>
<svg version="1.1" xmlns:xlink="http://www.w3.org/1999/xlink" width="21px" height="21px" xmlns="http://www.w3.org/2000/svg">
  <g transform="matrix(1 0 0 1 -354 -597 )">
    <path d="M 20.8703703784722 10.5  C 20.8703703784722 16.2275555555556  16.2275555555556 20.8703703784722  10.5 20.8703703784722  C 4.77244444444444 20.8703703784722  0.129629621527778 16.2275555555556  0.129629621527778 10.5  C 0.129629621527778 4.77244444444444  4.77244444444444 0.129629621527778  10.5 0.129629621527778  C 16.2275555555556 0.129629621527778  20.8703703784722 4.77244444444444  20.8703703784722 10.5  Z M 6.34822222222222 9.98148148958333  C 6.06291368871796 9.98262486391713  5.8324725342944 10.2146904740107  5.83333333333333 10.5  C 5.83333333333333 10.7882962881944  6.06407406597222 11.0185185104167  6.34822222222222 11.0185185104167  L 14.6517777777778 11.0185185104167  C 14.937086311282 11.0173751360829  15.1675274657056 10.7853095259893  15.1666666666667 10.5  C 15.1666666666667 10.2117037118056  14.9359259340278 9.98148148958333  14.6517777777778 9.98148148958333  L 6.34822222222222 9.98148148958333  Z " fill-rule="nonzero" fill="#ff3939" stroke="none" transform="matrix(1 0 0 1 354 597 )" />
  </g>
</svg>