<?xml version="1.0" encoding="utf-8"?>
<svg version="1.1" xmlns:xlink="http://www.w3.org/1999/xlink" width="121px" height="121px" xmlns="http://www.w3.org/2000/svg">
  <g transform="matrix(1 0 0 1 -314 -904 )">
    <path d="M 93.2782621598437 91.7995435675312  L 28.2762573113281 92.1076099399844  C 28.2762573113281 92.1076099399844  28.0914174863438 90.813731168875  28.5843236856719 89.3966258521875  C 29.2004564343594 87.794680708625  30.4943352035781 86.0695090157031  30.8024015779219 85.6382160938906  C 31.4185343266094 84.837243524  37.518248524625 79.8465682664375  40.7221388098594 78.42946294975  C 41.8927910297187 77.9365567523125  48.7318645257812 75.5952523107031  50.7034893174219 73.9316938934062  C 52.6135008353281 72.2681354742187  53.4144734071094 68.941018639625  51.0731689655 66.7229407492656  C 48.7318645238906 64.5664761345312  44.5421618418906 55.324484923125  44.5421618437813 55.3244849212344  C 44.5421618456719 55.3244849193437  40.0443927874375 38.5656741913437  49.5944503712969 31.7266006971719  C 53.0447937571406 29.1388431587344  56.7415902417031 27.968190938875  59.6990274301094 27.968190938875  C 63.1493708159531 27.968190938875  66.90778057425 28.7691635087656  68.941018639625 29.7549759055312  C 72.6378151241875 31.6033741478125  74.8558930145469 34.3143582375  76.7042912568281 38.1959945451562  C 78.9223691471875 42.9402167002187  78.42946294975 49.5944503712969  77.4436505529844 53.229633582125  C 76.4578381562188 56.9880433404219  73.8700806177813 62.9645309909687  70.2348974069531 66.9693938460937  C 66.5381009223906 71.0358699787343  70.4197372319375 74.2397602658593  71.3439363530781 74.5478266402031  C 75.7800921337969 76.0265452344062  83.6665913003594 79.415275344625  87.6714541592656 82.6807789054843  C 89.6430789509063 84.2827240490468  92.1076099399844 86.6856417625  92.9701957892812 89.0885594797343  C 93.3398754373594 90.0743718765  93.2166488898906 91.060184271375  93.2782621598437 91.7995435675312  Z M 120 106.278663131437  C 120.819395969078 113.918709199281  114.596455219812 120.141649948547  106.956409153859 120  L 79.2304355196406 120  C 76.7042912549375 120.141649946656  74.6094399139375 118.108411879391  74.6094399139375 115.520654340953  C 74.6094399139375 112.99451007625  76.6426779812032 110.89965873525  79.2304355196406 110  L 106.956409153859 110  C 109.482553418563 110.89965873525  111.577404759562 108.804807392359  111 106.278663131437  L 111 83.1736851029219  C 111.577404757672 80.6475408382188  113.610642824938 78.5526894972188  116.198400363375 78.5526894972188  C 118.724544628078 78.5526894972188  120.819395969078 80.5859275644844  120 83.1736851029219  L 120 106.278663131437  Z M 42.3240839515312 115.520654339063  C 42.3240839515312 118.046798603766  40.2292326086406 120.141649944766  37.7030883458281 120  L 14.5981103210937 120  C 6.95806425325 120.141649946656  0.735123502093747 113.918709197391  1 106.278663131437  L 1 83.1736851029219  C 0.735123502093747 80.6475408382188  2.82997484498437 78.5526894972188  5.35611910779687 78.5526894972188  C 7.88226337060938 78.5526894972188  9.9771147135 80.5859275644844  10 83.1736851029219  L 10 106.278663131437  C 9.97711471539062 108.804807396141  12.0719660582812 110.899658737141  14.5981103210937 110  L 37.7030883458281 110  C 40.2292326105312 110.899658737141  42.3240839515312 112.932896804406  42.3240839515312 115.520654339063  Z M 10 37.0869556009219  C 9.97711471539062 39.55148659  7.943876648125 41.6463379328906  5.41773238153125 41.6463379272187  C 2.89158811682813 41.6463379272187  0.796736775828126 39.5514865843281  1 37.0253423234063  L 1 13.9203642967813  C 0.796736779609373 6.28031823082813  6.95806425325 0.118990757187502  14.5981103210937 1  L 37.7030883458281 1  C 40.2292326105312 0.118990757187502  42.3240839515312 2.21384210007813  42.3240839515312 4.739986361  C 42.3240839515312 7.26613062192188  40.2292326105312 9.36098196670312  37.7030883458281 10  L 14.5981103210937 10  C 12.0719660563906 9.36098196670312  9.97711471539062 11.4558333095937  10 13.9819775724063  L 10 37.0869556009219  Z M 120 37.0253423234063  C 120.819395967188 39.5514865881094  118.724544624297 41.6463379291094  116.198400363375 41.6463379272187  C 113.672256098672 41.6463379272187  111.577404757672 39.5514865843281  111 37.0253423234063  L 111 13.9203642967813  C 111.577404759562 11.3942200320781  109.482553416672 9.29936869107812  106.956409151969 10  L 79.2304355196406 10  C 76.7042912549375 9.29936869107812  74.6094399139375 7.2045173481875  74.6094399139375 4.67837308726562  C 74.6094399139375 2.15222882634375  76.6426779812032 0.0573774815624973  79.2304355196406 0  L 106.956409153859 0  C 114.596455221703 0.0573774815624973  120.819395970969 6.28031823082812  120 13.9203642967813  L 120 37.0253423234063  Z " fill-rule="nonzero" fill="#a2cdff" stroke="none" transform="matrix(1 0 0 1 314 904 )" />
  </g>
</svg>