<?xml version="1.0" encoding="utf-8"?>
<svg version="1.1" xmlns:xlink="http://www.w3.org/1999/xlink" width="399px" height="355px" xmlns="http://www.w3.org/2000/svg">
  <g transform="matrix(1 0 0 1 -175 -796 )">
    <path d="M 147.376113761138 18.3394833948339  C 155.617541175412 3.80427639892834  186.644091440914 6.22681089824594  212.822743227432 1.86624879947427  C 238.031815318153 -2.00980639943389  265.664836648367 24.6380730930597  268.088785887859 26.5761006925137  C 266.634416344163 29.4831420916949  261.786517865179 42.0803214881464  268.088785887859 44.0183490876004  C 278.754162541625 47.4098973866451  275.360633606336 57.584542283779  281.662901629016 64.8521457817318  L 282.147691476915 65.3366526815953  C 290.873908739087 75.0267906788657  286.510800108001 96.3450942728605  285.541220412204 107.004246069858  L 285.541220412204 107.973259869585  C 285.056430564306 117.663397866855  275.360633606336 136.559166961533  275.360633606336 136.559166961533  C 282.147691476915 133.652125562351  284.571640716407 138.98170146085  285.541220412204 147.21831875853  C 286.510800108001 155.45493605621  282.147691476915 165.14507405348  281.178111781118 174.835212050751  L 281.178111781118 175.804225850478  C 280.693321933219 185.978870747612  271.967104671047 192.761967345701  271.967104671047 192.761967345701  C 268.573575735757 195.184501845018  264.69525695257 192.761967345701  264.69525695257 192.761967345701  L 263.725677256773 198.0915432442  C 262.271307713077 204.390132942425  260.816938169382 211.657736440378  258.392988929889 216.01829853915  C 254.9994599946 220.863367537785  254.9994599946 237.821109033008  254.9994599946 241.697164231916  L 254.9994599946 242.18167113178  L 258.392988929889 242.18167113178  C 264.210467104671 252.840822928777  302.024075240752 282.880250720315  354.381378813788 298.384471515948  L 355.835748357484 298.868978415812  C 382.4991899919 306.621088813628  391.710197101971 330.846433806804  394.618936189362 353  L 0 353  L 0 351.195723601072  C 2.42394923949239 329.877420007077  9.2110071100711 310.497144012536  28.1178111781118 302.74503361472  L 29.0873908739087 302.74503361472  C 57.689991899919 292.085881817722  118.288722887229 253.809836728504  133.317208172082 244.604205631097  L 136.710737107371 242.18167113178  L 140.589055890559 242.18167113178  C 144.467374673747 231.522519334782  140.589055890559 217.47181923874  140.589055890559 217.47181923874  C 134.286787867879 211.173229540515  133.80199801998 195.184501845018  133.80199801998 192.761967345701  C 120.227882278823 195.669008744882  113.925614256143 169.021129252388  113.440824408244 164.176060253753  C 113.440824408244 160.300005054845  111.016875168752 149.156346357984  112.956034560346 139.466208360714  C 113.925614256143 133.167618662488  118.288722887229 133.652125562351  121.19746197462 134.621139362079  L 121.682251822518 134.621139362079  C 121.19746197462 134.136632462215  120.712672126721 133.167618662488  120.227882278823 132.683111762624  L 119.258302583026 131.229591063034  C 115.864773647736 125.900015164535  111.50166501665 116.209877167265  112.956034560346 78.9028458777738  C 114.410404104041 40.1422938886923  138.649896498965 34.3282110903301  147.376113761138 18.8239902946974  L 147.376113761138 18.3394833948339  Z " fill-rule="nonzero" fill="#ffffff" stroke="none" transform="matrix(1 0 0 1 175 796 )" />
  </g>
</svg>