<?xml version="1.0" encoding="utf-8"?>
<svg version="1.1" xmlns:xlink="http://www.w3.org/1999/xlink" width="87px" height="69px" xmlns="http://www.w3.org/2000/svg">
  <defs>
    <linearGradient gradientUnits="userSpaceOnUse" x1="14.994874041621" y1="72.2170539542979" x2="84.2272442497262" y2="20.6826953892782" id="LinearGradient10">
      <stop id="Stop11" stop-color="#4568ee" offset="0" />
      <stop id="Stop12" stop-color="#45a2ee" offset="1" />
    </linearGradient>
  </defs>
  <g transform="matrix(1 0 0 1 -332 -223 )">
    <path d="M 87 60  L 71.2771084337349 60  L 78.7097480832421 52  L 66.3220153340635 52  L 63.8444687842278 55.131982475356  L 68.7042716319825 60  L 55.8400876232202 60  L 64.8926615553121 49  L 44.4052573932092 49  L 53.4578313253012 60  L 32 60  L 32 49  L 64 49  L 64 2.37440171645486  L 64.7973713033954 2.37440171645486  C 64.7973713033954 2.37440171645486  64.7973713033954 2.28019175081397  64.7973713033954 2.28019175081397  C 64.8926615553121 0.961252231841438  60.3187294633078 0.0191525754324892  54.6013143483023 0.0191525754324892  C 48.9791894852136 0.0191525754324892  44.4052573932092 0.961252231841438  44.4052573932092 2.18598178517307  C 44.4052573932092 2.18598178517307  44.4052573932092 2.28019175081397  44.4052573932092 2.28019175081397  L 44 2.28019175081397  L 44 34  L 31.9222343921139 34  L 31.9222343921139 27  L 9 27  L 9 60.8787903794505  L 0 60.8787903794505  L 0 68  L 87 68  L 87 60  Z M 31.9222343921139 45  L 31.9222343921139 37  L 44.3099671412924 37  L 44.3099671412924 45  L 31.9222343921139 45  Z M 24.7754654983571 46.5588756020345  L 24.7754654983571 52.6825233686927  L 16.2946330777656 52.6825233686927  L 16.2946330777656 46.5588756020345  L 24.7754654983571 46.5588756020345  Z M 24.7754654983571 33.7463202748728  L 24.7754654983571 39.869968041531  L 16.2946330777656 39.869968041531  L 16.2946330777656 33.7463202748728  L 24.7754654983571 33.7463202748728  Z " fill-rule="nonzero" fill="url(#LinearGradient10)" stroke="none" transform="matrix(1 0 0 1 332 223 )" />
  </g>
</svg>