<?xml version="1.0" encoding="utf-8"?>
<svg version="1.1" xmlns:xlink="http://www.w3.org/1999/xlink" width="26px" height="26px" xmlns="http://www.w3.org/2000/svg">
  <g transform="matrix(1 0 0 1 -48 -541 )">
    <path d="M 61 541  C 68.28 541  74 546.72  74 554  C 74 561.28  68.28 567  61 567  C 53.72 567  48 561.28  48 554  C 48 546.72  53.72 541  61 541  Z " fill-rule="nonzero" fill="#ffffff" stroke="none" />
    <path d="M 61 541.5  C 68 541.5  73.5 547  73.5 554  C 73.5 561  68 566.5  61 566.5  C 54 566.5  48.5 561  48.5 554  C 48.5 547  54 541.5  61 541.5  Z " stroke-width="1" stroke="#037bff" fill="none" />
  </g>
</svg>