<?xml version="1.0" encoding="utf-8"?>
<svg version="1.1" xmlns:xlink="http://www.w3.org/1999/xlink" width="26px" height="26px" xmlns="http://www.w3.org/2000/svg">
  <g transform="matrix(1 0 0 1 -48 -925 )">
    <path d="M 61 925  C 68.28 925  74 930.72  74 938  C 74 945.28  68.28 951  61 951  C 53.72 951  48 945.28  48 938  C 48 930.72  53.72 925  61 925  Z " fill-rule="nonzero" fill="#ffffff" stroke="none" />
    <path d="M 61 925.5  C 68 925.5  73.5 931  73.5 938  C 73.5 945  68 950.5  61 950.5  C 54 950.5  48.5 945  48.5 938  C 48.5 931  54 925.5  61 925.5  Z " stroke-width="1" stroke="#1bdb5f" fill="none" />
  </g>
</svg>