<?xml version="1.0" encoding="utf-8"?>
<svg version="1.1" xmlns:xlink="http://www.w3.org/1999/xlink" width="24px" height="21px" xmlns="http://www.w3.org/2000/svg">
  <g transform="matrix(1 0 0 1 -237 -805 )">
    <path d="M 23.94 18.8176470588235  C 23.98 18.6117647058824  23.82 18.4470588235294  23.62 18.4470588235294  L 21.06 18.4470588235294  L 22.38 16.7588235294118  C 22.5 16.5941176470588  22.58 16.3882352941176  22.58 16.1411764705882  L 22.58 6.13529411764706  C 22.54 5.43529411764706  21.5 4.85882352941176  20.22 4.85882352941176  C 19.74 4.85882352941176  19.3 4.94117647058823  19 5.06470588235294  L 19 15.2352941176471  C 18.94 15.4823529411765  18.86 15.6882352941176  18.74 15.8941176470588  L 18.26 16.5117647058824  C 18.18 16.6352941176471  18.18 16.8  18.26 16.9647058823529  L 19.38 18.4470588235294  L 14.9 18.4470588235294  L 17.18 15.6882352941176  C 17.42 15.4  17.54 15.0705882352941  17.54 14.7  L 17.54 1.77058823529412  C 17.5 0.947058823529412  16.18 0.288235294117647  14.5 0.288235294117647  C 12.82 0.288235294117647  11.5 0.947058823529412  11.46 1.77058823529412  L 11.46 10.5823529411765  L 8.58 10.5823529411765  L 8.58 9.18235294117647  C 8.58 8.9764705882353  8.42 8.81176470588236  8.22 8.81176470588236  L 2.46 8.81176470588236  C 2.26 8.81176470588236  2.1 8.9764705882353  2.1 9.18235294117647  L 2.1 18.4470588235294  L 0.58 18.4470588235294  C 0.38 18.4470588235294  0.22 18.6117647058824  0.22 18.8176470588235  L 0.22 20.3823529411765  C 0.22 20.5882352941176  0.38 20.7529411764706  0.58 20.7529411764706  L 23.58 20.7529411764706  C 23.78 20.7529411764706  23.94 20.5882352941176  23.94 20.3823529411765  L 23.94 18.8176470588235  Z M 8.58 11.7352941176471  L 11.46 11.7352941176471  L 11.46 14.0411764705882  L 8.58 14.0411764705882  L 8.58 11.7352941176471  Z M 3.78 11.7764705882353  L 3.78 10.6235294117647  C 3.78 10.4176470588235  3.94 10.2529411764706  4.14 10.2529411764706  L 6.54 10.2529411764706  C 6.74 10.2529411764706  6.9 10.4176470588235  6.9 10.6235294117647  L 6.9 11.7764705882353  C 6.9 11.9823529411765  6.74 12.1470588235294  6.54 12.1470588235294  L 4.14 12.1470588235294  C 3.94 12.1470588235294  3.78 11.9823529411765  3.78 11.7764705882353  Z M 3.78 15.0705882352941  L 3.78 13.9176470588235  C 3.78 13.7117647058824  3.94 13.5470588235294  4.14 13.5470588235294  L 6.54 13.5470588235294  C 6.74 13.5470588235294  6.9 13.7117647058824  6.9 13.9176470588235  L 6.9 15.0705882352941  C 6.9 15.2764705882353  6.74 15.4411764705882  6.54 15.4411764705882  L 4.14 15.4411764705882  C 3.94 15.4411764705882  3.78 15.2764705882353  3.78 15.0705882352941  Z M 8.58 18.4470588235294  L 8.58 15.2352941176471  L 11.54 15.2352941176471  C 11.62 15.4  11.7 15.5647058823529  11.82 15.6882352941176  L 14.1 18.4470588235294  L 8.58 18.4470588235294  Z " fill-rule="nonzero" fill="#ffffff" stroke="none" transform="matrix(1 0 0 1 237 805 )" />
  </g>
</svg>