<?xml version="1.0" encoding="utf-8"?>
<svg version="1.1" xmlns:xlink="http://www.w3.org/1999/xlink" width="24px" height="15px" xmlns="http://www.w3.org/2000/svg">
  <g transform="matrix(1 0 0 1 -599 -304 )">
    <path d="M 21.1764705882353 3.61764705882353  L 0.456435205661211 3.61764705882353  L 0.456435205661211 12.6826625386997  C 0.456435205661211 13.797213622291  1.47545333923043 14.6888544891641  2.74922600619195 14.6888544891641  L 3.89562140645732 14.6888544891641  L 3.89562140645732 10.8622291021672  C 3.8531623175586 7.51857585139319  6.86775762936754 4.73219814241486  10.6890756302521 4.62074303405573  C 14.5103936311367 4.54643962848297  17.6523662096418 7.22136222910217  17.7372843874392 10.5650154798762  C 17.7372843874392 10.6021671826625  17.7372843874392 10.6393188854489  17.7372843874392 10.6764705882353  L 17.7372843874392 14.7260061919505  L 18.8836797877046 14.7260061919505  C 20.1574524546661 14.7260061919505  21.1764705882353 13.8343653250774  21.1764705882353 12.7198142414861  L 21.1764705882353 3.61764705882353  Z M 0.838567005749672 2.57739938080496  L 20.8792569659443 2.57739938080496  C 20.4971251658558 1.94582043343653  19.7328615656789 1.57430340557276  18.9261388766033 1.57430340557276  L 2.79168509509067 1.57430340557276  C 1.98496240601504 1.57430340557276  1.22069880583813 1.94582043343653  0.838567005749672 2.57739938080496  Z " fill-rule="nonzero" fill="#ffffff" stroke="none" transform="matrix(1 0 0 1 599 304 )" />
  </g>
</svg>