<?xml version="1.0" encoding="utf-8"?>
<svg version="1.1" xmlns:xlink="http://www.w3.org/1999/xlink" width="15px" height="25px" xmlns="http://www.w3.org/2000/svg">
  <g transform="matrix(1 0 0 1 -656 -548 )">
    <path d="M 12.8928571428571 1.34469696969697  C 13.6392857142857 1.34469696969697  14.25 1.99242424242424  14 2.78409090909091  L 14 17.1780303030303  L 9.5 17.1780303030303  C 7.76964285714286 17.1780303030303  6.24285714285714 18.3295454545455  5.66607142857143 20.0568181818182  C 5.49642857142857 20.5246212121212  5.42857142857143 20.9924242424242  5.42857142857143 21.4962121212121  L 5.42857142857143 22.2159090909091  C 5.42857142857143 22.6117424242424  5.12321428571429 22.9356060606061  4.75 22.9356060606061  L 2.03571428571429 22.9356060606061  C 1.28928571428571 22.9356060606061  0.678571428571429 22.2878787878788  0.678571428571429 21.4962121212121  L 0.678571428571429 18.6174242424242  C 0.678571428571429 18.2215909090909  0.983928571428571 17.8977272727273  1.35714285714286 17.8977272727273  C 1.73035714285714 17.8977272727273  2.03571428571429 17.5738636363636  2.03571428571429 17.1780303030303  L 2.03571428571429 10.844696969697  C 2.03571428571429 10.7727272727273  2.03571428571429 10.6647727272727  2.06964285714286 10.592803030303  L 2.74821428571429 8.68560606060606  L 4.68214285714286 3.32386363636364  L 5.05535714285714 2.28030303030303  C 5.25892857142857 1.7405303030303  5.76785714285714 1.34469696969697  6.31071428571429 1.34469696969697  L 12.8928571428571 1.34469696969697  Z " fill-rule="nonzero" fill="#5aaae7" stroke="none" transform="matrix(1 0 0 1 656 548 )" />
  </g>
</svg>