<?xml version="1.0" encoding="utf-8"?>
<svg version="1.1" xmlns:xlink="http://www.w3.org/1999/xlink" width="22px" height="22px" xmlns="http://www.w3.org/2000/svg">
  <g transform="matrix(1 0 0 1 -255 -508 )">
    <path d="M 6.125 2.60416665820313  C 6.12500001402286 1.55712682522362  6.97379350881737 0.708333341796875  8.02083334179687 1  L 19.3958333417969 1  C 20.4428731648607 0.70833335581973  21.2916666441803 1.55712683513927  21 2.60416665820313  L 21 13.9791666582031  C 21.2916666582031 15.0262064911826  20.4428731747764 15.8749999859771  19.3958333417969 15.875  L 8.02083334179687 15.875  C 6.97379349890171 15.875  6.125 15.0262065010983  6.125 13.9791666582031  L 6.125 2.60416665820313  Z M 19.3958333417969 2.33333334179688  L 8.02083334179688 2.33333334179688  C 7.8712562272924 2.33333334179687  7.75000001402285 2.45458954369866  8 2.60416665820313  L 8 13.9791666582031  C 7.75 14.1287437826233  7.87125621737675 14.25  8.02083334179687 14.25  C 8.02083334179687 14.25  8.02083334179688 14.25  8.02083334179687 14  L 19.3958333417969 14  C 19.5454104563013 14.2499999859771  19.6666666582031 14.1287437727076  19.6666666582031 13.9791666582031  L 19.6666666582031 2.60416665820313  C 19.6666666441803 2.45458955361431  19.5454104463857 2.33333335581973  19.3958333417969 2.33333334179688  Z M 14.25 19.3958333417969  L 14.25 17.5  C 14.25 17.0512686407625  14.6137686407625 16.6875  15.0625 16.6875  C 15.5112313592375 16.6875  15.875 17.0512686407625  15.875 17.5  L 15.875 19.3958333417969  C 15.8749999859771 20.4428731747764  15.0262064911826 21.2916666582031  13.9791666582031 21  L 2.60416665820313 21  C 1.55712683513927 21.2916666441803  0.70833335581973 20.4428731648607  1 19.3958333417969  L 1 8.02083334179687  C 0.708333341796875 6.97379350881737  1.55712682522362 6.12500001402286  2.60416665820313 6.125  L 4.5 6.125  C 4.94873135923752 6.125  5.3125 6.48876864076248  5.3125 6.9375  C 5.3125 7.38623135923752  4.94873135923752 7.75  4.5 7.75  L 2.60416665820312 7.75  C 2.45458954369866 7.75000001402285  2.33333334179687 7.87125622729241  2.33333334179687 8.02083334179687  L 2.33333334179687 19.3958333417969  C 2.33333335581973 19.5454104463857  2.45458955361431 19.6666666441803  2.60416665820312 19.6666666582031  L 13.9791666582031 19.6666666582031  C 14.1287437727076 19.6666666582031  14.2499999859771 19.5454104563013  14.25 19.3958333417969  Z " fill-rule="nonzero" fill="#ffffff" stroke="none" transform="matrix(1 0 0 1 255 508 )" />
  </g>
</svg>