<?xml version="1.0" encoding="utf-8"?>
<svg version="1.1" xmlns:xlink="http://www.w3.org/1999/xlink" width="12px" height="12px" xmlns="http://www.w3.org/2000/svg">
  <g transform="matrix(1 0 0 1 -663 -551 )">
    <path d="M 3.895 9.79166666666667  L 4.24333333333333 11.0583333333333  C 4.33833333333333 11.4066666666667  4.11666666666667 11.755  3.76833333333333 11.8183333333333  C 3.705 11.8183333333333  3.67333333333333 11.85  3.61 11.85  L 1.9 11.85  L 1.9 9.31666666666667  L 3.29333333333333 9.31666666666667  C 3.57833333333333 9.31666666666667  3.83166666666667 9.50666666666667  3.895 9.79166666666667  Z M 5.32 1.27333333333333  C 5.985 1.52666666666667  6.30166666666667 2.255  6.04833333333333 2.88833333333333  L 5.54166666666667 4.25  L 5.16166666666667 5.26333333333333  C 4.90833333333333 5.92833333333333  4.18 6.245  3.54666666666667 5.99166666666667  L 2.62833333333333 5.64333333333333  L 3.135 4.25  L 4.40166666666667 0.925000000000001  L 5.32 1.27333333333333  Z M 10.1333333333333 1.71666666666667  C 10.4816666666667 1.71666666666667  10.7666666666667 2.00166666666667  10.7666666666667 2.35  L 10.7666666666667 6.15  C 10.7666666666667 6.49833333333333  10.4816666666667 6.78333333333333  10.1333333333333 6.78333333333333  L 7.885 6.78333333333333  C 7.53666666666667 6.78333333333333  7.25166666666667 6.49833333333333  7.25166666666667 6.15  C 7.25166666666667 6.08666666666667  7.25166666666667 5.99166666666667  7.28333333333333 5.92833333333333  L 7.91666666666667 4.25  L 8.70833333333333 2.12833333333333  C 8.80333333333333 1.875  9.025 1.71666666666667  9.31 1.71666666666667  L 10.1333333333333 1.71666666666667  Z " fill-rule="nonzero" fill="#e6e7e8" stroke="none" transform="matrix(1 0 0 1 663 551 )" />
  </g>
</svg>