<?xml version="1.0" encoding="utf-8"?>
<svg version="1.1" xmlns:xlink="http://www.w3.org/1999/xlink" width="28px" height="4px" xmlns="http://www.w3.org/2000/svg">
  <g transform="matrix(1 0 0 1 -643 -576 )">
    <path d="M 24.5897435897436 1.935  L 23.464358974359 0.383333333333333  L 26.6358974358974 0.383333333333333  C 27.0110256410256 0.383333333333333  27.3179487179487 0.668333333333329  27.3179487179487 1.01666666666667  L 27.3179487179487 2.28333333333333  C 27.3179487179487 2.63166666666666  27.0110256410256 2.91666666666666  26.6358974358974 2.91666666666666  L 24.01 2.91666666666666  C 24.3851282051282 2.91666666666666  24.6920512820513 2.63166666666666  24.6920512820513 2.28333333333333  C 24.6920512820513 2.15666666666667  24.6579487179487 2.03  24.5897435897436 1.935  Z M 1.4 0.383333333333333  L 8.22051282051282 0.383333333333333  L 14.8023076923077 0.383333333333333  L 13.6769230769231 1.935  C 13.4723076923077 2.22  13.5405128205128 2.6  13.8474358974359 2.82166666666667  C 13.9497435897436 2.885  14.0861538461538 2.91666666666666  14.2225641025641 2.91666666666666  L 10.9487179487179 2.91666666666666  C 10.9487179487179 2.56833333333333  10.6417948717949 2.28333333333333  10.2666666666667 2.28333333333333  L 4.81025641025641 2.28333333333333  C 4.4351282051282 2.28333333333333  4.12820512820513 2.56833333333333  4.12820512820513 2.91666666666666  L 1.4 2.91666666666666  L 1.4 0.383333333333333  Z " fill-rule="nonzero" fill="#3d9ae2" stroke="none" transform="matrix(1 0 0 1 643 576 )" />
  </g>
</svg>