<?xml version="1.0" encoding="utf-8"?>
<svg version="1.1" xmlns:xlink="http://www.w3.org/1999/xlink" width="12px" height="7px" xmlns="http://www.w3.org/2000/svg">
  <g transform="matrix(1 0 0 1 -650 -580 )">
    <path d="M 10.9283333333333 4.99722222222222  C 10.9283333333333 4.84944444444444  10.865 4.70166666666666  10.8016666666667 4.59083333333333  L 9.75666666666667 2.78055555555556  L 9.28166666666667 1.96777777777777  C 9.18666666666667 1.78305555555555  9.06 1.63527777777777  8.90166666666666 1.52444444444444  C 8.71166666666667 1.37666666666666  8.45833333333333 1.30277777777777  8.23666666666667 1.30277777777777  L 3.265 1.30277777777777  C 2.85333333333333 1.30277777777777  2.44166666666667 1.56138888888889  2.22 1.96777777777777  L 1.745 2.78055555555556  L 0.699999999999999 4.59083333333333  C 0.510000000000002 4.92333333333333  0.573333333333331 5.36666666666666  0.858333333333331 5.62527777777778  C 0.95333333333333 5.69916666666667  1.08 5.73611111111111  1.20666666666666 5.73611111111111  L 8.61666666666667 5.73611111111111  C 8.61666666666667 5.73611111111111  8.61666666666667 5.77305555555555  8.64833333333333 5.77305555555555  L 8.93333333333333 5.73611111111111  L 10.295 5.73611111111111  C 10.6433333333333 5.73611111111111  10.9283333333333 5.40361111111111  10.9283333333333 4.99722222222222  Z " fill-rule="nonzero" fill="#5aaae7" stroke="none" transform="matrix(1 0 0 1 650 580 )" />
  </g>
</svg>