<?xml version="1.0" encoding="utf-8"?>
<svg version="1.1" xmlns:xlink="http://www.w3.org/1999/xlink" width="19px" height="19px" xmlns="http://www.w3.org/2000/svg">
  <g transform="matrix(1 0 0 1 -660 -570 )">
    <path d="M 18.905 7.65343750000001  L 15.7963888888889 1.44875  L 9.1112037037037 2.35125  C 8.74351851851852 2.38885416666667  8.40925925925926 2.53927083333333  8.075 2.72729166666667  L 6.27 3.89302083333333  L 2.9274074074074 6.0740625  C 2.42601851851852 6.37489583333334  2.05833333333333 6.86375  1.82435185185185 7.4278125  L 0.721296296296297 10.1353125  L 0.654444444444442 10.3233333333333  C 0.119629629629626 11.6394791666667  0.186481481481481 13.18125  0.821574074074073 14.4597916666667  L 1.42324074074074 15.663125  C 2.05833333333333 16.9416666666667  3.22824074074074 17.7689583333333  4.49842592592592 17.8817708333333  L 6.77138888888888 18.145  L 7.3062037037037 18.2202083333333  C 7.87444444444444 18.2954166666667  8.40925925925925 18.145  8.91064814814814 17.8441666666667  L 11.250462962963 16.34  L 14.0582407407407 14.4973958333333  C 14.3590740740741 14.309375  14.6599074074074 14.0085416666667  14.860462962963 13.7077083333333  L 15.729537037037 12.4291666666667  L 18.437037037037 8.33031250000001  L 18.905 7.65343750000001  Z " fill-rule="nonzero" fill="#acabb1" stroke="none" transform="matrix(1 0 0 1 660 570 )" />
  </g>
</svg>