<?xml version="1.0" encoding="utf-8"?>
<svg version="1.1" xmlns:xlink="http://www.w3.org/1999/xlink" width="36px" height="28px" xmlns="http://www.w3.org/2000/svg">
  <g transform="matrix(1 0 0 1 -647 -562 )">
    <path d="M 34.966875 5.23564102564103  L 34.575 5.74717948717949  L 33.684375 6.8725641025641  L 30.335625 1.31384615384616  L 32.473125 1.07512820512821  C 33.043125 1.00692307692308  33.5775 1.27974358974359  33.8625 1.75717948717949  L 35.07375 3.73512820512821  C 35.35875 4.2125641025641  35.323125 4.79230769230769  34.966875 5.23564102564103  Z M 7.9275 22.525641025641  C 8.105625 22.9689743589744  8.2125 23.4123076923077  8.2125 23.8897435897436  C 8.2125 25.7653846153846  6.609375 27.3  4.65 27.3  C 2.690625 27.3  1.0875 25.7653846153846  1.0875 23.8897435897436  C 1.0875 23.4123076923077  1.194375 22.9689743589744  1.3725 22.525641025641  C 2.15625 20.7864102564103  4.29375 20.0020512820513  6.075 20.7523076923077  C 6.894375 21.0933333333333  7.535625 21.741282051282  7.9275 22.525641025641  Z M 28.126875 20.7523076923077  C 29.445 21.2979487179487  30.3 22.525641025641  30.3 23.8897435897436  C 30.3 25.7653846153846  28.696875 27.3  26.7375 27.3  C 24.778125 27.3  23.175 25.7653846153846  23.175 23.8897435897436  C 23.175 23.4123076923077  23.281875 22.9689743589744  23.46 22.525641025641  C 24.24375 20.7864102564103  26.345625 20.0020512820513  28.126875 20.7523076923077  Z " fill-rule="nonzero" fill="#57565c" stroke="none" transform="matrix(1 0 0 1 647 562 )" />
  </g>
</svg>