<?xml version="1.0" encoding="utf-8"?>
<svg version="1.1" xmlns:xlink="http://www.w3.org/1999/xlink" width="7px" height="8px" xmlns="http://www.w3.org/2000/svg">
  <g transform="matrix(1 0 0 1 -668 -558 )">
    <path d="M 1.68194444444444 5.85733333333333  C 1.82972222222222 5.908  2.01444444444444 5.93333333333333  2.19916666666667 5.93333333333333  L 4.82222222222222 5.93333333333333  C 5.635 5.93333333333333  6.3 5.47733333333333  6.3 4.92  L 6.3 1.88  C 6.3 1.32266666666667  5.635 0.866666666666667  4.82222222222222 0.866666666666667  L 3.86166666666667 0.866666666666667  C 3.23361111111111 0.866666666666667  2.67944444444445 1.12  2.49472222222222 1.52533333333333  L 0.832222222222222 4.56533333333333  C 0.536666666666666 5.09733333333333  0.943055555555555 5.68  1.68194444444444 5.85733333333333  Z M 2.19916666666667 4.92  L 3.86166666666667 1.88  L 4.82222222222222 1.88  L 4.82222222222222 4.92  L 2.19916666666667 4.92  Z M 3.34444444444445 7.96  L 3.34444444444445 6.94666666666667  L 6.3 6.94666666666667  L 6.3 7.96  L 3.34444444444445 7.96  Z " fill-rule="nonzero" fill="#000000" stroke="none" transform="matrix(1 0 0 1 668 558 )" />
  </g>
</svg>