<?xml version="1.0" encoding="utf-8"?>
<svg version="1.1" xmlns:xlink="http://www.w3.org/1999/xlink" width="40px" height="28px" xmlns="http://www.w3.org/2000/svg">
  <g transform="matrix(1 0 0 1 -645 -558 )">
    <path d="M 39.3333333333333 8.2025641025641  L 40 8.2025641025641  L 40 6.83846153846154  L 39.3333333333333 6.83846153846154  L 39.3333333333333 5.98589743589744  L 39.5666666666667 5.6448717948718  C 40.0333333333333 4.99692307692308  40.1 4.11025641025641  39.7 3.39410256410256  L 38.5666666666667 1.41615384615385  C 38.1666666666667 0.700000000000001  37.4 0.324871794871796  36.6 0.427179487179488  L 27.9333333333333 1.48435897435898  C 27.5 1.5525641025641  27.0666666666667 1.68897435897436  26.6666666666667 1.92769230769231  L 25.2333333333333 2.78025641025641  L 20.6 2.20051282051282  C 20.3 0.734102564102565  18.9 -0.22076923076923  17.4666666666667 0.086153846153847  C 16.2333333333333 0.324871794871796  15.3333333333333 1.45025641025641  15.3333333333333 2.74615384615385  C 15.3333333333333 3.70102564102564  15.8333333333333 4.58769230769231  16.6666666666667 5.09923076923077  L 16.0333333333333 7.35  L 16 13.6589743589744  L 14.6666666666667 13.6589743589744  L 14.6666666666667 4.79230769230769  C 14.6666666666667 3.66692307692308  13.7666666666667 2.74615384615385  12.6666666666667 2.74615384615385  L 6.23333333333333 2.74615384615385  C 5.4 2.74615384615385  4.66666666666667 3.25769230769231  4.36666666666667 4.04205128205128  L 1.43333333333333 11.885641025641  C 1.36666666666667 12.0561538461538  1.33333333333333 12.2266666666667  1.33333333333333 12.4312820512821  L 1.33333333333333 18.4333333333333  C 0.6 18.4333333333333  0 19.0471794871795  0 19.7974358974359  L 0 22.525641025641  C 0 23.6510256410256  0.9 24.5717948717949  2 24.5717948717949  L 4.66666666666667 24.5717948717949  C 5.4 24.5717948717949  6 23.9579487179487  6 23.2076923076923  L 6.73333333333333 23.2076923076923  C 6.7 23.4464102564103  6.66666666666667 23.6510256410256  6.66666666666667 23.8897435897436  C 6.66666666666667 26.1405128205128  8.46666666666667 27.9820512820513  10.6666666666667 27.9820512820513  C 12.8666666666667 27.9820512820513  14.6666666666667 26.1405128205128  14.6666666666667 23.8897435897436  C 14.6666666666667 23.6510256410256  14.6333333333333 23.4464102564103  14.6 23.2076923076923  L 16 23.2076923076923  L 16 25.2538461538462  C 16 26.0041025641026  16.6 26.6179487179487  17.3333333333333 26.6179487179487  L 22.6666666666667 26.6179487179487  C 23.4 26.6179487179487  24 26.0041025641026  24 25.2538461538462  L 24 23.2076923076923  L 27.4 23.2076923076923  C 27.3666666666667 23.4464102564103  27.3333333333333 23.6510256410256  27.3333333333333 23.8897435897436  C 27.3333333333333 26.1405128205128  29.1333333333333 27.9820512820513  31.3333333333333 27.9820512820513  C 33.5333333333333 27.9820512820513  35.3333333333333 26.1405128205128  35.3333333333333 23.8897435897436  C 35.3333333333333 23.6510256410256  35.3 23.4464102564103  35.2666666666667 23.2076923076923  L 38.6666666666667 23.2076923076923  C 39.4 23.2076923076923  40 22.5938461538462  40 21.8435897435897  L 40 20.4794871794872  C 40 20.0020512820513  39.7333333333333 19.5587179487179  39.3333333333333 19.32  L 39.3333333333333 16.3871794871795  L 40 16.3871794871795  L 40 15.0230769230769  L 39.3333333333333 15.0230769230769  L 39.3333333333333 12.2948717948718  L 40 12.2948717948718  L 40 10.9307692307692  L 39.3333333333333 10.9307692307692  L 39.3333333333333 8.2025641025641  Z M 3.6 9.97589743589744  L 5.03333333333333 6.15641025641026  L 5.36666666666667 6.29282051282051  C 5.7 6.42923076923077  5.9 6.83846153846154  5.76666666666667 7.17948717948718  L 4.8 9.73717948717949  C 4.73333333333333 9.90769230769231  4.6 10.0441025641026  4.46666666666667 10.1123076923077  C 4.3 10.1805128205128  4.13333333333333 10.1805128205128  3.96666666666667 10.1123076923077  L 3.6 9.97589743589744  Z M 2.66666666666667 16.3871794871795  L 2.66666666666667 15.0230769230769  L 3.46666666666667 15.0230769230769  L 3.8 16.3871794871795  L 2.66666666666667 16.3871794871795  Z M 13.3333333333333 23.8897435897436  C 13.3333333333333 25.3902564102564  12.1333333333333 26.6179487179487  10.6666666666667 26.6179487179487  C 9.2 26.6179487179487  8 25.3902564102564  8 23.8897435897436  C 8 22.3892307692308  9.2 21.1615384615385  10.6666666666667 21.1615384615385  C 12.1333333333333 21.1615384615385  13.3333333333333 22.3892307692308  13.3333333333333 23.8897435897436  Z M 13.3333333333333 19.1494871794872  L 13.3333333333333 20.8546153846154  C 11.7 19.3541025641026  9.16666666666666 19.4905128205128  7.7 21.1615384615385  C 7.5 21.3661538461538  7.33333333333333 21.6048717948718  7.2 21.8776923076923  L 6.06666666666667 21.8776923076923  C 6.4 20.3089743589744  7.76666666666667 19.1494871794872  9.33333333333333 19.1494871794872  L 13.3333333333333 19.1494871794872  Z M 14 4.79230769230769  L 14 17.751282051282  L 9.33333333333333 17.751282051282  C 6.76666666666667 17.751282051282  4.66666666666667 19.8997435897436  4.66666666666667 22.525641025641  L 4.66666666666667 23.2076923076923  L 2 23.2076923076923  C 1.63333333333333 23.2076923076923  1.33333333333333 22.9007692307692  1.33333333333333 22.525641025641  L 1.33333333333333 19.7974358974359  C 2.06666666666667 19.7974358974359  2.66666666666667 19.1835897435897  2.66666666666667 18.4333333333333  L 2.66666666666667 17.751282051282  L 3.8 17.751282051282  C 4.53333333333333 17.751282051282  5.13333333333333 17.1374358974359  5.13333333333333 16.3871794871795  C 5.13333333333333 16.2848717948718  5.13333333333333 16.1484615384615  5.1 16.0461538461538  L 4.76666666666667 14.6820512820513  C 4.63333333333333 14.0682051282051  4.1 13.6589743589744  3.46666666666667 13.6589743589744  L 2.66666666666667 13.6589743589744  L 2.66666666666667 12.4312820512821  L 3.1 11.2717948717949  L 3.43333333333333 11.4082051282051  C 3.66666666666667 11.5105128205128  3.9 11.5446153846154  4.16666666666667 11.5446153846154  C 4.43333333333333 11.5446153846154  4.73333333333333 11.4764102564103  4.96666666666667 11.3741025641026  C 5.43333333333333 11.1353846153846  5.83333333333333 10.7261538461538  6 10.2487179487179  L 6.96666666666667 7.69102564102564  C 7.36666666666667 6.63384615384615  6.83333333333333 5.47435897435897  5.8 5.06512820512821  L 5.43333333333333 4.92871794871795  L 5.56666666666666 4.55358974358974  C 5.66666666666667 4.28076923076923  5.9 4.11025641025641  6.16666666666666 4.11025641025641  L 12.6666666666667 4.11025641025641  C 13.0333333333333 4.11025641025641  13.3333333333333 4.41717948717949  14 4.79230769230769  Z M 35.7666666666667 1.89358974358974  L 36.7666666666667 1.75717948717949  C 36.8 1.75717948717949  36.8333333333333 1.75717948717949  36.8333333333333 1.75717948717949  C 37.0666666666667 1.75717948717949  37.3 1.89358974358974  37.4 2.09820512820513  L 38.5333333333333 4.07615384615385  C 38.6666666666667 4.3148717948718  38.6333333333333 4.62179487179487  38.5 4.82641025641026  L 38.0333333333333 5.47435897435897  L 38 5.47435897435897  L 38 5.5425641025641  L 37.9 5.67897435897436  L 35.7666666666667 1.89358974358974  Z M 38 15.0230769230769  L 35.3333333333333 15.0230769230769  L 35.3333333333333 12.2948717948718  L 38 12.2948717948718  L 38 15.0230769230769  Z M 35.3 16.3871794871795  L 38 16.3871794871795  L 38 19.1153846153846  L 35.9 19.1153846153846  L 35.6 18.6720512820513  C 35.5333333333333 18.535641025641  35.4333333333333 18.4333333333333  35.3 18.3310256410256  L 35.3 16.3871794871795  Z M 38 10.9307692307692  L 35.7 10.9307692307692  L 37.7 8.2025641025641  L 38 8.2025641025641  L 38 10.9307692307692  Z M 36.0333333333333 8.2025641025641  L 35.3333333333333 9.1574358974359  L 35.3333333333333 8.2025641025641  L 36.0333333333333 8.2025641025641  Z M 22.2333333333333 6.12230769230769  L 27.3333333333333 3.05307692307692  C 27.5666666666667 2.91666666666667  27.8333333333333 2.81435897435898  28.1 2.78025641025641  L 34.3333333333333 2.06410256410256  L 37.0333333333333 6.83846153846154  L 35.3333333333333 6.83846153846154  L 35.3333333333333 5.47435897435898  L 34 5.47435897435898  L 34 10.9989743589744  L 33.2666666666667 11.9879487179487  C 33.1 12.1925641025641  32.9 12.3971794871795  32.6666666666667 12.5335897435897  L 27.5333333333333 15.5687179487179  C 27.1666666666667 15.7733333333333  26.7666666666667 15.875641025641  26.3333333333333 15.8415384615385  L 23.5333333333333 15.5687179487179  C 22.4666666666667 15.4664102564103  21.5 14.8184615384615  20.9666666666667 13.8635897435897  L 20.3666666666667 12.7723076923077  C 19.8333333333333 11.8174358974359  19.7666666666667 10.6579487179487  20.2333333333333 9.66897435897436  L 21.4 7.04307692307692  C 21.5666666666667 6.66794871794872  21.8666666666667 6.32692307692308  22.2333333333333 6.12230769230769  Z M 33.3666666666667 13.6930769230769  C 33.6 13.5566666666667  33.8 13.3861538461538  34 13.1815384615385  L 34 17.751282051282  C 34 17.751282051282  33.9666666666667 17.751282051282  33.9666666666667 17.751282051282  L 33.4 17.751282051282  L 31.2333333333333 14.9548717948718  L 33.3666666666667 13.6930769230769  Z M 18.7333333333333 9.90769230769231  C 18.4333333333333 11.1353846153846  18.6 12.3971794871795  19.2 13.454358974359  L 19.8 14.545641025641  C 20.5666666666667 15.875641025641  21.9 16.7623076923077  23.4 16.8987179487179  L 24.7666666666667 17.0351282051282  L 23.8666666666667 19.1153846153846  L 21.0333333333333 19.1153846153846  L 17.7 13.6589743589744  L 17.3333333333333 13.6589743589744  L 17.3333333333333 7.62282051282051  L 17.7666666666667 6.02  L 18.7333333333333 9.90769230769231  Z M 18.9666666666667 5.26974358974359  C 19.7 4.96282051282051  20.3 4.34897435897436  20.5333333333333 3.56461538461539  L 23.3 3.87153846153846  L 21.5333333333333 4.92871794871795  C 20.9333333333333 5.26974358974359  20.4333333333333 5.81538461538462  20.1666666666667 6.46333333333333  L 19.5666666666667 7.79333333333333  L 18.9666666666667 5.26974358974359  Z M 16.6666666666667 2.74615384615385  C 16.6666666666667 1.99589743589744  17.2666666666667 1.38205128205128  18 1.38205128205128  C 18.7333333333333 1.38205128205128  19.3333333333333 1.99589743589744  19.3333333333333 2.74615384615385  C 19.3333333333333 3.49641025641026  18.7333333333333 4.11025641025641  18 4.11025641025641  C 17.2666666666667 4.11025641025641  16.6666666666667 3.49641025641026  16.6666666666667 2.74615384615385  Z M 14.6666666666667 19.1153846153846  L 14.6666666666667 15.0230769230769  L 16.9666666666667 15.0230769230769  L 19.4666666666667 19.1153846153846  L 14.6666666666667 19.1153846153846  Z M 22.6666666666667 22.525641025641  L 22.6666666666667 25.2538461538462  L 17.3333333333333 25.2538461538462  L 17.3333333333333 22.525641025641  L 22.6666666666667 22.525641025641  Z M 25.8666666666667 20  L 25.4666666666667 21.0933333333333  C 25.3333333333333 21.3320512820513  25.2666666666667 21.5707692307692  25.2666666666667 21.8435897435897  L 23.8333333333333 21.8435897435897  C 23.6 21.434358974359  23.1666666666667 21.1615384615385  22.7 21.1615384615385  L 17.3333333333333 21.1615384615385  C 16.8666666666667 21.1615384615385  16.4333333333333 21.434358974359  16.2 21.8435897435897  L 14.6666666666667 21.8435897435897  L 14.6666666666667 20  L 25.8666666666667 20  Z M 26.7666666666667 19.1153846153846  L 25.3333333333333 19.1153846153846  L 26.1666666666667 17.1715384615385  L 26.2333333333333 17.1715384615385  C 26.3333333333333 17.1715384615385  26.4666666666667 17.1715384615385  26.5666666666667 17.1715384615385  C 27.1333333333333 17.1715384615385  27.7333333333333 17.0010256410256  28.2333333333333 16.7282051282051  L 30.0666666666667 15.6369230769231  L 31.6666666666667 17.751282051282  L 28.7 17.751282051282  C 28.0333333333333 17.751282051282  27.4 18.0923076923077  27.0333333333333 18.6720512820513  L 26.7666666666667 19.1153846153846  Z M 34 23.8897435897436  C 34 25.3902564102564  32.8 26.6179487179487  31.3333333333333 26.6179487179487  C 29.8666666666667 26.6179487179487  28.6666666666667 25.3902564102564  28.6666666666667 23.8897435897436  C 28.6666666666667 22.3892307692308  29.8666666666667 21.1615384615385  31.3333333333333 21.1615384615385  C 32.8 21.1615384615385  34 22.3892307692308  34 23.8897435897436  Z M 36.0666666666667 21.8435897435897  L 34.8 21.8435897435897  C 33.7 19.8997435897436  31.2666666666667 19.2176923076923  29.3333333333333 20.3430769230769  C 28.7333333333333 20.7182051282051  28.2333333333333 21.2297435897436  27.8666666666667 21.8435897435897  L 26.5666666666667 21.8435897435897  L 28.1333333333333 19.4223076923077  C 28.2666666666667 19.2176923076923  28.4666666666667 19.1153846153846  28.7 19.1153846153846  L 33.9333333333333 19.1153846153846  C 34.1666666666667 19.1153846153846  34.3666666666667 19.2176923076923  34.5 19.4223076923077  L 36.0666666666667 21.8435897435897  Z M 38.6666666666667 20.4794871794872  L 38.6666666666667 21.8435897435897  L 37.4 21.8435897435897  C 37.4 21.5707692307692  37.3333333333333 21.2979487179487  37.2 21.0933333333333  L 36.8 20.4794871794872  L 38.6666666666667 20.4794871794872  Z " fill-rule="nonzero" fill="#000000" stroke="none" transform="matrix(1 0 0 1 645 558 )" />
  </g>
</svg>