<?xml version="1.0" encoding="utf-8"?>
<svg version="1.1" xmlns:xlink="http://www.w3.org/1999/xlink" width="25px" height="7px" xmlns="http://www.w3.org/2000/svg">
  <g transform="matrix(1 0 0 1 -642 -569 )">
    <path d="M 4.20138888888889 2.54722222222222  C 4.20138888888889 1.32805555555555  3.31076388888889 0.330555555555553  2.22222222222222 0.330555555555553  C 1.13368055555556 0.330555555555553  0.243055555555555 1.32805555555555  0.243055555555555 2.54722222222222  C 0.243055555555555 3.76638888888889  1.13368055555556 4.76388888888889  2.22222222222222 4.76388888888889  C 3.31076388888889 4.76388888888889  4.20138888888889 3.76638888888889  4.20138888888889 2.54722222222222  Z M 2.88194444444444 2.54722222222222  C 2.88194444444444 2.95361111111111  2.58506944444445 3.28611111111111  2.22222222222222 3.28611111111111  C 1.859375 3.28611111111111  1.5625 2.95361111111111  1.5625 2.54722222222222  C 1.5625 2.14083333333333  1.859375 1.80833333333333  2.22222222222222 1.80833333333333  C 2.58506944444445 1.80833333333333  2.88194444444444 2.14083333333333  2.88194444444444 2.54722222222222  Z M 24.6527777777778 2.54722222222222  C 24.6527777777778 1.32805555555555  23.7621527777778 0.330555555555553  22.6736111111111 0.330555555555553  C 21.5850694444444 0.330555555555553  20.6944444444444 1.32805555555555  20.6944444444444 2.54722222222222  C 20.6944444444444 3.76638888888889  21.5850694444444 4.76388888888889  22.6736111111111 4.76388888888889  C 23.7621527777778 4.76388888888889  24.6527777777778 3.76638888888889  24.6527777777778 2.54722222222222  Z M 23.3333333333333 2.54722222222222  C 23.3333333333333 2.95361111111111  23.0364583333333 3.28611111111111  22.6736111111111 3.28611111111111  C 22.3107638888889 3.28611111111111  22.0138888888889 2.95361111111111  22.0138888888889 2.54722222222222  C 22.0138888888889 2.14083333333333  22.3107638888889 1.80833333333333  22.6736111111111 1.80833333333333  C 23.0364583333333 1.80833333333333  23.3333333333333 2.14083333333333  23.3333333333333 2.54722222222222  Z " fill-rule="nonzero" fill="#000000" stroke="none" transform="matrix(1 0 0 1 642 569 )" />
  </g>
</svg>