<?xml version="1.0" encoding="utf-8"?>
<svg version="1.1" xmlns:xlink="http://www.w3.org/1999/xlink" width="24px" height="25px" xmlns="http://www.w3.org/2000/svg">
  <g transform="matrix(1 0 0 1 -81 -1481 )">
    <path d="M 1.34285714285714 2.2  C 1.85714285714286 1.42857142857143  2.67142857142857 0.957142857142856  3.57142857142857 0.828571428571429  C 3.7 0.828571428571429  3.87142857142857 0.785714285714285  4 1  L 20.4142857142857 1  C 21.3142857142857 0.785714285714285  22.1714285714286 1.17142857142857  22.7714285714286 1.81428571428571  C 23.2857142857143 2.37142857142857  23.5857142857143 3.1  23.5857142857143 3.87142857142857  L 23.5857142857143 12.5714285714286  C 23.5857142857143 12.7428571428571  23.6285714285714 12.9142857142857  23.5428571428571 13.0857142857143  C 23.4142857142857 13.3857142857143  22.9857142857143 13.5571428571429  22.6857142857143 13.3857142857143  C 20.6285714285714 12.4  18.2714285714286 12.4857142857143  16.2571428571429 13.5142857142857  C 14.8 14.2857142857143  13.6428571428571 15.6142857142857  13.0857142857143 17.1571428571429  C 12.3142857142857 19.2142857142857  12.6142857142857 21.4857142857143  13.8571428571429 23.2857142857143  C 13.9 23.3285714285714  13.9428571428571 23.4142857142857  13.9857142857143 23.4571428571429  C 14.1571428571429 23.7571428571429  14.0285714285714 24.1428571428571  13.7285714285714 24.2714285714286  C 13.6428571428571 24.3142857142857  13.5571428571429 24.3142857142857  13.4714285714286 24.3571428571429  L 3.91428571428571 24.3571428571429  C 3.1 24.3571428571429  2.28571428571428 24.0142857142857  1.72857142857143 23.4571428571429  C 1.12857142857143 22.8571428571429  0.785714285714283 22.0428571428572  1 21.1857142857143  L 1 3.95714285714286  C 0.785714285714283 3.31428571428571  0.957142857142854 2.71428571428571  1.34285714285714 2.2  Z M 5.97142857142857 6  C 5.88571428571428 5.97142857142857  5.84285714285714 5.97142857142857  5.8 5.97142857142857  C 5.58571428571429 6.01428571428572  5.41428571428571 6.18571428571429  5.37142857142857 6.44285714285714  C 5.32857142857143 6.65714285714286  5.37142857142857 6.87142857142857  5.54285714285714 7.04285714285714  C 5.67142857142857 7.17142857142857  5.84285714285715 7.21428571428571  6.01428571428572 7.21428571428571  L 18.2714285714286 7.21428571428571  C 18.4 7.21428571428571  18.5285714285714 7.21428571428571  18.6142857142857 7.17142857142857  C 18.8714285714286 7.08571428571428  19.0428571428571 6.78571428571429  19.0428571428571 6.52857142857143  C 19 6.22857142857142  18.7428571428571 5.97142857142857  18.4428571428571 6  L 5.97142857142857 6  Z M 12.8285714285714 11.0285714285714  C 10.5142857142857 11.0285714285714  8.2 11.0285714285714  5.92857142857143 11.0285714285714  C 5.75714285714286 11.0285714285714  5.58571428571429 11.1571428571429  5.45714285714286 11.2857142857143  C 5.28571428571428 11.5  5.28571428571428 11.8428571428571  5.5 12.0571428571429  C 5.62857142857143 12.1857142857143  5.8 12.2714285714286  6.01428571428572 12.2714285714286  L 12.8285714285714 12.2714285714286  C 13.0428571428571 12.2714285714286  13.2142857142857 12.1857142857143  13.3428571428571 12.0142857142857  C 13.5571428571429 11.7142857142857  13.4714285714286 11.3285714285714  13.1714285714286 11.1571428571429  C 13.0857142857143 11.0714285714286  12.9571428571429 11.0285714285714  12.8285714285714 11.0285714285714  Z " fill-rule="nonzero" fill="#ffffff" stroke="none" transform="matrix(1 0 0 1 81 1481 )" />
  </g>
</svg>