<?xml version="1.0" encoding="utf-8"?>
<svg version="1.1" xmlns:xlink="http://www.w3.org/1999/xlink" width="13px" height="13px" xmlns="http://www.w3.org/2000/svg">
  <g transform="matrix(1 0 0 1 -94 -1494 )">
    <path d="M 2.48571428571429 2.4  C 3.42857142857143 1.54285714285714  4.67142857142857 0.942857142857143  6 0.857142857142854  C 6.85714285714285 0.771428571428569  7.71428571428571 0.899999999999999  8.52857142857143 1.2  C 9.55714285714286 1.58571428571428  10.4571428571429 2.27142857142857  11.1428571428571 3.17142857142857  C 11.6571428571429 3.85714285714285  12 4.67142857142857  12.1285714285714 5.48571428571428  C 12.3 6.55714285714285  12.2142857142857 7.62857142857143  11.7857142857143 8.61428571428571  C 11.4857142857143 9.38571428571428  10.9714285714286 10.1142857142857  10.3714285714286 10.6714285714286  C 9.72857142857143 11.2714285714286  8.95714285714286 11.7  8.1 11.9571428571428  C 7.07142857142857 12.2571428571429  5.95714285714286 12.2571428571429  4.92857142857143 11.9571428571428  C 4.07142857142857 11.7  3.3 11.2714285714286  2.65714285714286 10.6714285714286  C 1.8 9.85714285714285  1.2 8.82857142857142  0.942857142857143 7.67142857142857  C 0.728571428571428 6.72857142857142  0.771428571428572 5.78571428571428  1.02857142857143 4.84285714285714  C 1.28571428571429 3.94285714285714  1.8 3.08571428571428  2.48571428571429 2.4  Z M 5.27142857142857 4.71428571428571  L 5.27142857142857 7.24285714285714  C 5.27142857142857 7.32857142857143  5.27142857142857 7.41428571428572  5.31428571428571 7.5  C 5.4 7.71428571428571  5.61428571428571 7.88571428571429  5.87142857142857 7.92857142857143  C 6.77142857142856 7.92857142857143  7.62857142857142 7.92857142857143  8.52857142857142 7.92857142857143  C 8.74285714285714 7.92857142857143  8.91428571428571 7.8  9.04285714285714 7.58571428571428  C 9.17142857142856 7.32857142857143  9.12857142857143 6.94285714285714  8.87142857142857 6.77142857142857  C 8.69999999999999 6.64285714285714  8.52857142857142 6.64285714285714  8.31428571428571 6.64285714285714  L 6.59999999999999 6.64285714285714  L 6.59999999999999 4.75714285714285  C 6.59999999999999 4.41428571428571  6.34285714285714 4.11428571428571  5.99999999999999 4.11428571428571  C 5.95714285714285 4.11428571428571  5.9142857142857 4.11428571428571  5.82857142857142 4.11428571428571  C 5.48571428571428 4.2  5.27142857142857 4.41428571428571  5.27142857142857 4.71428571428571  Z " fill-rule="nonzero" fill="#ffffff" stroke="none" transform="matrix(1 0 0 1 94 1494 )" />
  </g>
</svg>