<?xml version="1.0" encoding="utf-8"?>
<svg version="1.1" xmlns:xlink="http://www.w3.org/1999/xlink" width="24px" height="26px" xmlns="http://www.w3.org/2000/svg">
  <g transform="matrix(1 0 0 1 -48 -205 )">
    <path d="M 23.8850485339806 11.9104761808036  C 23.8850485339806 18.4476190379464  18.5165048446602 23.7961904665179  11.9549514466019 23.7961904665179  C 5.39339804854369 23.7961904665179  0.0248543592232999 18.4476190379464  0.0248543592232999 11.9104761808036  C 0.0248543592232999 5.37333332366071  5.39339804854369 0.024761895089283  11.9549514466019 0.024761895089283  C 18.5165048446602 0.024761895089283  23.8850485339806 5.37333332366071  23.8850485339806 11.9104761808036  Z M 2.01320388349515 11.9104761808036  C 2.01320388349515 17.35809521875  6.48699029126214 21.8152380758929  11.9549514466019 21.8152381049107  C 17.4229126019417 21.8152381049107  21.8966990097087 17.3580952477679  21.8966990388349 11.9104761808036  C 21.8966990679612 6.46285711383929  17.422912631068 2.00571428571429  11.9549514466019 2.00571428571429  C 6.48699026213592 2.00571428571429  2.01320388349515 6.46285714285714  2.01320388349515 11.9104761808036  Z M 21.2007766893204 25.6780952477679  L 19.3118446601942 23.4  C 18.9141747669903 23.0038095334821  19.0135922330097 22.3104761808036  19.4112621262136 22.0133333236607  C 19.8089320194175 21.7161904665179  20.504854368932 21.7161904665179  20.8031067961165 22.1123809620536  L 22.6920388252427 24.3904761808036  C 23.0897087184466 24.7866666473214  22.9902912524272 25.48  22.5926213592233 25.7771428571429  C 22.1949514660194 26.0742857142857  21.4990291165049 26.0742857142857  21.2007766893204 25.6780952477679  Z " fill-rule="nonzero" fill="#27a4ff" stroke="none" transform="matrix(1 0 0 1 48 205 )" />
  </g>
</svg>