<?xml version="1.0" encoding="utf-8"?>
<svg version="1.1" xmlns:xlink="http://www.w3.org/1999/xlink" width="26px" height="26px" xmlns="http://www.w3.org/2000/svg">
  <g transform="matrix(1 0 0 1 -634 -118 )">
    <path d="M 21.9703333222656 3.84833332226563  C 22.4803333222656 3.242  22.588 2.42033332226563  22.2536666777344 1.70066667773438  C 21.9285616378687 0.986036741817972  21.214092385078 0.528953922025936  20.429 1  L 2.52233332226563 1  C 1.729 0.533333322265625  1.02633332226563 0.981  0.692000000000002 1.70066667773437  C 0.357666677734377 2.42033335546875  0.465333322265628 3.242  0.975333322265628 3.84833332226563  L 7.27666667773437 11.334  L 7.27666667773437 21.3526666777344  C 7.27666667773437 22.299  7.83766667773438 23.149  8.71033332226563 23.5173333222656  L 13.2266666777344 25.4496666777344  C 13.4476666777344 25.546  13.68 25.5913333554687  13.918 25.5913333222656  C 14.258 25.5913333222656  14.5923333222656 25.495  14.8813333222656 25.3023333222656  C 15.3737699497396 24.9791351289371  15.6699677566493 24.429357912326  15.669 23.8403333222656  L 15.669 11.334  L 21.9703333222656 3.84833332226563  Z M 19.8963333222656 3  L 13 10.5066666777344  L 13 23.0583333222656  L 9.6 21.4376666777344  C 9.566 21.4206666777344  9.54333332226563 21.3923333554688  10 21.3526666777344  L 10 10.5066666777344  L 3.06066667773437 3  L 19.8963333222656 3  Z M 25.4666666777344 21.874  C 25.4666667109375 21.2506666777344  24.9566666777344 20.7406666777344  24.3333333222656 20.7406666777344  L 20.6613333222656 20.7406666777344  C 20.038 20.7406666777344  19.528 21.2506666777344  19.528 21.874  C 19.528 22.4973333222656  20.038 23.0073333222656  20.6613333222656 23.0073333222656  L 24.3333333222656 23.0073333222656  C 24.9566666445313 23.0073333222656  25.4666666445313 22.4973333222656  25.4666666777344 21.874  Z M 25.4666666777344 16.9723333222656  C 25.4666667109375 16.3489999667969  24.9566666777344 15.839  24.3333333222656 15.839  L 20.6613333222656 15.839  C 20.038 15.839  19.528 16.349  19.528 16.9723333222656  C 19.528 17.5956666445312  20.038 18.1056666445313  20.6613333222656 18.1056666777344  L 24.3333333222656 18.1056666777344  C 24.9566666445313 18.1056666777344  25.4666666445313 17.5956666777344  25.4666666777344 16.9723333222656  Z M 20.6613333222656 10.943  C 20.0354106119033 10.943  19.528 11.4504106119033  19.528 12.0763333222656  C 19.528 12.6996666445312  20.038 13.2096666445313  20.6613333222656 13.2096666777344  L 24.3333333222656 13.2096666777344  C 24.9566666445313 13.2096666777344  25.4666666445313 12.6996666777344  25.4666666777344 12.0763333222656  C 25.4666667109375 11.4529999667969  24.9566666777344 10.943  24.3333333222656 10.943  L 20.6613333222656 10.943  Z " fill-rule="nonzero" fill="#ffffff" stroke="none" transform="matrix(1 0 0 1 634 118 )" />
  </g>
</svg>