<?xml version="1.0" encoding="utf-8"?>
<svg version="1.1" xmlns:xlink="http://www.w3.org/1999/xlink" width="27px" height="24px" xmlns="http://www.w3.org/2000/svg">
  <g transform="matrix(1 0 0 1 -267 -1482 )">
    <path d="M 16.1857142857143 9.12857142857143  C 16.2285714285714 9.08571428571429  7.1 0.642857142857142  7.1 0.642857142857142  L 3.58571428571429 0.642857142857142  C 1.7 0.685714285714285  0.199999999999998 2.18571428571429  0.157142857142857 4.07142857142857  L 0.157142857142857 20.2285714285714  C 0.157142857142857 20.6142857142857  0.285714285714285 21  0.414285714285715 21.3857142857143  L 16.1857142857143 9.12857142857143  Z M 17.8571428571429 7.84285714285714  L 26.3 1.28571428571428  C 25.7857142857143 0.9  25.1428571428571 0.77142857142857  24.4142857142857 1  L 9.88571428571428 1  L 17.8571428571429 7.84285714285714  Z M 21.5428571428571 17.3142857142857  C 21.6285714285714 17.1857142857143  21.5 17.0571428571429  21.2428571428571 16.9285714285714  C 21.1142857142857 16.8  20.8571428571429 16.8  20.7285714285714 16.9285714285714  C 20.6 16.9285714285714  20.3428571428571 17.0571428571429  20.2142857142857 17.1857142857143  C 20.0857142857143 17.3142857142857  20 17.4428571428571  20 17.7  L 20 18.2142857142857  C 20 18.3428571428571  20.1285714285714 18.4714285714286  20.2571428571429 18.6  C 20.3857142857143 18.7285714285714  20.5142857142857 18.7285714285714  20.7714285714286 18.7285714285714  C 21.0285714285714 18.7285714285714  21.2857142857143 18.6  21.4142857142857 18.4714285714286  C 21.5428571428571 18.3428571428571  21.6714285714286 18.0857142857143  21.6714285714286 17.8285714285714  C 21.6714285714286 17.7  21.6714285714286 17.4428571428571  21.5428571428571 17.3142857142857  Z M 18.2428571428571 23  L 10.1428571428571 16.1571428571429  L 1.7 22.7142857142857  C 2.34285714285714 23.1  2.94285714285714 23.3571428571429  3.71428571428571 23  L 18.2428571428571 23  Z " fill-rule="nonzero" fill="#ffffff" stroke="none" transform="matrix(1 0 0 1 267 1482 )" />
  </g>
</svg>