<?xml version="1.0" encoding="utf-8"?>
<svg version="1.1" xmlns:xlink="http://www.w3.org/1999/xlink" width="17px" height="22px" xmlns="http://www.w3.org/2000/svg">
  <g transform="matrix(1 0 0 1 -278 -1484 )">
    <path d="M 16.8428571428571 2.02857142857143  C 16.8428571428571 1.55714285714286  16.7142857142857 1.17142857142857  16.5857142857143 0.657142857142858  L 0.642857142857142 12.9142857142857  L 9.98571428571428 21.3571428571429  L 13.4142857142857 21.3571428571429  C 15.3 21.3142857142857  16.8 19.8142857142857  16.8428571428571 17.9285714285714  L 16.8428571428571 2.02857142857143  Z M 15.8142857142857 14.5428571428571  C 16.0714285714286 14.8  15.9428571428571 15.0571428571429  15.8142857142857 15.1857142857143  C 15.5571428571429 15.4428571428571  15.4285714285714 15.4428571428571  15.1714285714286 15.4428571428571  C 14.9142857142857 15.4428571428571  14.6571428571429 15.3142857142857  14.5285714285714 15.1857142857143  C 14.4 15.0571428571429  14.2714285714286 14.8  14.2714285714286 14.5428571428571  C 14.2714285714286 14.4142857142857  14.2714285714286 14.1571428571429  14.4 14.0285714285714  L 13.0285714285714 12.0142857142857  C 12.9 12.1428571428571  12.7714285714286 12.1428571428571  12.5142857142857 12.1428571428571  L 12.2571428571429 12.1428571428571  L 10.8857142857143 14.6714285714286  C 11.0142857142857 14.8  11.2714285714286 14.9285714285714  11.2714285714286 15.1857142857143  C 11.4 15.4428571428571  11.4 15.5714285714286  11.4 15.8285714285714  C 11.4 16.2142857142857  11.2714285714286 16.6  10.8857142857143 16.9857142857143  C 10.6285714285714 17.2428571428571  10.2428571428571 17.5  9.72857142857143 17.5  C 9.34285714285714 17.5  8.95714285714286 17.3714285714286  8.57142857142857 16.9857142857143  C 8.31428571428572 16.7285714285714  8.05714285714285 16.3428571428571  8.05714285714285 15.8285714285714  C 8.05714285714285 15.5714285714286  8.18571428571428 15.1857142857143  8.31428571428571 14.9285714285714  L 7.15714285714285 13.5571428571429  C 7.02857142857142 13.5571428571429  6.9 13.6857142857143  6.77142857142856 13.6857142857143  C 6.64285714285713 13.6857142857143  6.38571428571428 13.6857142857143  6.25714285714285 13.5571428571429  L 5.87142857142856 13.1714285714286  C 5.74285714285713 13.0428571428571  5.74285714285713 12.7857142857143  5.87142857142856 12.6571428571429  C 5.87142857142856 12.5285714285714  5.99999999999999 12.2714285714286  6.12857142857142 12.1428571428571  C 6.25714285714285 12.0142857142857  6.38571428571428 11.8857142857143  6.64285714285714 11.8857142857143  C 6.77142857142856 11.8857142857143  7.02857142857142 11.8857142857143  7.15714285714285 12.0142857142857  L 7.54285714285714 12.4  C 7.67142857142857 12.5285714285714  7.67142857142857 12.7857142857143  7.67142857142857 12.9142857142857  C 7.67142857142857 13.0428571428571  7.67142857142857 13.1714285714286  7.54285714285714 13.3  L 8.7 14.5428571428571  C 8.95714285714285 14.4142857142857  9.21428571428571 14.2857142857143  9.59999999999999 14.2857142857143  L 9.98571428571428 14.2857142857143  L 11.3571428571429 11.7571428571429  C 11.2285714285714 11.5  11.1 11.3714285714286  11.1 11.1142857142857  C 11.1 10.8571428571429  11.2285714285714 10.6  11.4857142857143 10.3428571428571  C 11.7428571428571 10.0857142857143  12 9.95714285714286  12.2571428571429 9.95714285714286  C 12.5142857142857 9.95714285714286  12.7714285714286 10.0857142857143  13.0285714285714 10.3428571428571  C 13.2857142857143 10.6  13.4142857142857 10.8571428571429  13.4142857142857 11.1142857142857  C 13.4142857142857 11.3714285714286  13.4142857142857 11.5  13.2857142857143 11.6285714285714  L 14.6571428571429 13.6428571428571  L 14.9142857142857 13.6428571428571  C 15.1714285714286 13.6428571428571  15.4285714285714 13.7714285714286  15.5571428571429 13.9  C 15.6857142857143 14.0285714285714  15.8142857142857 14.2857142857143  15.8142857142857 14.5428571428571  Z " fill-rule="nonzero" fill="#ffffff" stroke="none" transform="matrix(1 0 0 1 278 1484 )" />
  </g>
</svg>