<?xml version="1.0" encoding="utf-8"?>
<svg version="1.1" xmlns:xlink="http://www.w3.org/1999/xlink" width="25px" height="28px" xmlns="http://www.w3.org/2000/svg">
  <g transform="matrix(1 0 0 1 -113 -1481 )">
    <path d="M 23.8805970149254 10.7223880597015  C 24.5703301673451 11.0865671641791  24.915196743555 11.8149253731343  25 12.5432835820896  L 25 24.5611940298508  C 24.915196743555 26.0179104477612  23.5357304387155 27.4746268656716  21.8113975576662 27.4746268656716  L 16.6383989145183 27.4746268656716  C 15.6037991858887 27.4746268656716  14.914066033469 26.7462686567164  14.914066033469 26.0179104477612  L 14.914066033469 21.6477611940299  C 14.914066033469 20.555223880597  13.5345997286296 19.4626865671642  12.1551334237901 19.8268656716418  C 11.1205336951606 19.8268656716418  10.4308005427408 20.555223880597  10.4308005427408 21.6477611940299  L 10.4308005427408 26.0179104477612  C 10.4308005427408 26.7462686567164  9.74106739032112 27.4746268656716  8.70646766169154 27.4746268656716  L 3.53346901854364 27.4746268656716  C 1.80913613749435 27.4746268656716  0.429669832654907 26.3820895522388  0.429669832654907 24.5611940298508  L 0.429669832654907 12.5432835820896  C 0.429669832654907 11.8149253731343  0.774536408864766 11.0865671641791  1.11940298507463 10.7223880597015  L 10.085933966531 1.61791044776119  C 11.4654002713704 0.525373134328359  13.5345997286296 0.525373134328359  14.914066033469 1.61791044776119  L 23.8805970149254 10.7223880597015  Z " fill-rule="nonzero" fill="#ffffff" stroke="none" transform="matrix(1 0 0 1 113 1481 )" />
  </g>
</svg>