<?xml version="1.0" encoding="utf-8"?>
<svg version="1.1" xmlns:xlink="http://www.w3.org/1999/xlink" width="25px" height="25px" xmlns="http://www.w3.org/2000/svg">
  <g transform="matrix(1 0 0 1 -82 -316 )">
    <path d="M 4.14705882352942 4.14705882352941  C 6.35294117647059 1.94117647058824  8.55882352941177 1.20588235294118  11.5 0.47058823529412  C 12.9705882352941 0.47058823529412  15.1764705882353 0.47058823529412  16.6470588235294 1.20588235294118  C 18.8529411764706 2.6764705882353  20.3235294117647 3.41176470588236  21.7941176470588 5.61764705882353  C 22.5294117647059 7.08823529411765  23.2647058823529 8.55882352941177  24 10.7647058823529  C 24.7352941176471 12.9705882352941  24 15.1764705882353  23.2647058823529 17.3823529411765  C 22.5294117647059 18.1176470588235  21.7941176470588 19.5882352941177  20.3235294117647 21.0588235294118  C 18.8529411764706 22.5294117647059  17.3823529411765 23.2647058823529  15.9117647058824 24  C 13.7058823529412 24.7352941176471  11.5 24.7352941176471  9.29411764705883 24  C 7.8235294117647 23.2647058823529  5.61764705882353 22.5294117647059  4.88235294117647 21.0588235294118  C 2.6764705882353 19.5882352941177  1.20588235294118 17.3823529411765  1.20588235294118 15.1764705882353  C 0.47058823529412 12.9705882352941  1.20588235294118 11.5  1.20588235294118 9.29411764705883  C 1.94117647058824 7.08823529411765  2.6764705882353 5.61764705882353  4.14705882352942 4.14705882352941  Z M 10.0294117647059 8.55882352941177  L 10.0294117647059 13.7058823529412  C 10.0294117647059 13.7058823529412  10.0294117647059 14.4411764705882  10.0294117647059 14.4411764705882  C 10.0294117647059 15.1764705882353  10.7647058823529 15.1764705882353  10.7647058823529 15.1764705882353  C 12.2352941176471 15.1764705882353  14.4411764705882 15.1764705882353  15.9117647058824 15.1764705882353  C 16.6470588235294 15.1764705882353  16.6470588235294 15.1764705882353  16.6470588235294 14.4411764705882  C 16.6470588235294 13.7058823529412  16.6470588235294 12.9705882352941  15.9117647058824 12.9705882352941  C 15.9117647058824 12.9705882352941  15.1764705882353 12.9705882352941  14.4411764705882 12.9705882352941  L 12.2352941176471 12.9705882352941  L 12.2352941176471 8.55882352941177  C 12.2352941176471 7.82352941176471  11.5 7.08823529411765  10.7647058823529 7.08823529411765  C 10.0294117647059 7.8235294117647  10.0294117647059 7.8235294117647  10.0294117647059 8.55882352941177  Z " fill-rule="nonzero" fill="#ffffff" stroke="none" transform="matrix(1 0 0 1 82 316 )" />
  </g>
</svg>