<?xml version="1.0" encoding="utf-8"?>
<svg version="1.1" xmlns:xlink="http://www.w3.org/1999/xlink" width="46px" height="48px" xmlns="http://www.w3.org/2000/svg">
  <g transform="matrix(1 0 0 1 -57 -291 )">
    <path d="M 1.43929912390488 2.88115246098439  C 2.15894868585732 1.4405762304922  3.5982478097622 0  5.75719649561952 0  C 5.75719649561952 0  6.47684605757197 0  6.47684605757197 0  L 39.5807259073842 0  C 41.0200250312891 0  43.1789737171464 0.720288115246098  43.8986232790989 2.1608643457383  C 44.6182728410513 3.60144057623049  45.3379224030038 5.04201680672269  45 6.48259303721489  L 45 23.7695078031213  C 45.3379224030038 23.7695078031213  45.3379224030038 24.4897959183673  45.3379224030038 24.4897959183673  C 45.3379224030038 25.2100840336134  43.8986232790989 25.2100840336134  43.8986232790989 25.2100840336134  C 39.5807259073842 23.0492196878752  35.2628285356696 23.0492196878752  30.9449311639549 25.2100840336134  C 28.0663329161452 26.6506602641056  25.9073842302879 29.53181272509  24.468085106383 32.4129651860744  C 23.0287859824781 37.4549819927971  23.7484355444305 41.7767106842737  25.9073842302879 45.3781512605042  C 25.9073842302879 45.3781512605042  25.9073842302879 45.3781512605042  25.9073842302879 46.0984393757503  C 25.9073842302879 46.8187274909964  25.9073842302879 47.5390156062425  25.1877346683354 47.5390156062425  C 25.1877346683354 47.5390156062425  25.1877346683354 47.5390156062425  24.468085106383 47  L 6.47684605757197 47  C 5.03754693366708 47.5390156062425  2.87859824780976 46.8187274909964  2.15894868585732 45.3781512605042  C 0.719649561952441 44.6578631452581  0 42.4969987995198  0 41.0564225690276  L 0 6.48259303721489  C 0 5.04201680672269  0.719649561952441 3.60144057623049  1.43929912390488 2.88115246098439  Z M 10.0750938673342 10  C 10.0750938673342 10.0840336134454  10.0750938673342 10.0840336134454  10.0750938673342 10.0840336134454  C 9.35544430538173 10.0840336134454  9.35544430538173 10.8043217286915  9.35544430538173 10.8043217286915  C 9.35544430538173 11.5246098439376  9.35544430538173 11.5246098439376  9.35544430538173 12.2448979591837  C 9.35544430538173 12.2448979591837  10.0750938673342 12.9651860744298  10.0750938673342 13  L 34.5431789737171 13  C 34.5431789737171 12.9651860744298  35.2628285356696 12.9651860744298  35.2628285356696 12.9651860744298  C 35.982478097622 12.9651860744298  35.982478097622 12.2448979591837  35.982478097622 11.5246098439376  C 35.982478097622 10.8043217286915  35.2628285356696 10.0840336134454  34.5431789737171 10  L 10.0750938673342 10  Z M 23.7484355444305 21.608643457383  C 19.4305381727159 20.8883553421369  15.1126408010013 20.8883553421369  10.0750938673342 20.8883553421369  C 9.35544430538173 20.8883553421369  9.35544430538173 20.8883553421369  9.35544430538173 21.608643457383  C 9.35544430538173 22.3289315726291  9.35544430538173 23.0492196878752  9.35544430538173 23.0492196878752  C 9.35544430538173 23.0492196878752  10.0750938673342 23.7695078031213  10.0750938673342 24  L 23.7484355444305 24  C 24.468085106383 23.7695078031213  24.468085106383 23.7695078031213  24.468085106383 23.0492196878752  C 25.1877346683354 22.3289315726291  24.468085106383 21.608643457383  24.468085106383 21.608643457383  C 24.468085106383 21.608643457383  23.7484355444305 21.608643457383  23.7484355444305 21.608643457383  Z " fill-rule="nonzero" fill="#ffffff" stroke="none" transform="matrix(1 0 0 1 57 291 )" />
  </g>
</svg>