<?xml version="1.0" encoding="utf-8"?>
<svg version="1.1" xmlns:xlink="http://www.w3.org/1999/xlink" width="41px" height="50px" xmlns="http://www.w3.org/2000/svg">
  <g transform="matrix(1 0 0 1 -209 -291 )">
    <path d="M 40.8125 12.5  L 28.3125 0  L 28.3125 0.0437500000000002  C 28.1125 0.0437500000000002  6.4375 0  6.4375 0  C 2.9875 0  0.1875 2.8  1 6.25  L 1 43.75  C 0.1875 47.2  2.9875 50  6.4375 50  L 34.5625 50  C 38.0125 50  40.8125 47.2  40 43.75  L 40 15.625  L 40.8125 12.5  Z M 31.74375 19.75  C 32.63125 20.6375  32.63125 22.08125  31.75 22.96875  L 18.89375 35.825  C 18.0125 36.70625  16.5625 36.70625  15.68125 35.825  L 9.25 29.39375  C 8.36875 28.5125  8.36875 27.0625  9.25 26.18125  C 10.13125 25.3  11.58125 25.3  12.4625 26.18125  L 17.28125 31  L 28.53125 19.75  C 29.4125 18.86875  30.8625 18.86875  31.74375 19.75  Z M 37.6875 12.5  L 31.4375 12.5  C 29.7125 12.5  28.3125 11.1  28.3125 9.375  L 28.3125 3.125  L 37.6875 12.5  Z " fill-rule="nonzero" fill="#ffffff" stroke="none" transform="matrix(1 0 0 1 209 291 )" />
  </g>
</svg>