<?xml version="1.0" encoding="utf-8"?>
<svg version="1.1" xmlns:xlink="http://www.w3.org/1999/xlink" width="53px" height="58px" xmlns="http://www.w3.org/2000/svg">
  <g transform="matrix(1 0 0 1 -351 -287 )">
    <path d="M 0.0203065134099593 17.8333333333333  C 0.0203065134099593 17.8333333333333  0.0203065134099593 44.5833333333333  0.0203065134099593 44.5833333333333  L 23.2881864623244 58  L 23.2881864623244 55  L 3 43.0833333333333  L 3 19.3333333333333  L 0.0203065134099593 17.8333333333333  Z M 51 44.5833333333333  L 51.8019157088123 44.5833333333333  L 28.5340357598978 58  L 28.5340357598978 55  L 49 43.0833333333333  L 49 19.3333333333333  L 51 17.8333333333333  L 51 44.5833333333333  Z M 2.55862068965517 13.4166666666667  L 25.9111111111111 0  L 49.1789910600255 13.4166666666667  L 46.5560664112388 14.9166666666667  L 25.9111111111111 3  L 5.18154533844189 14.9166666666667  L 2.55862068965517 13.4166666666667  Z " fill-rule="nonzero" fill="#ffffff" stroke="none" transform="matrix(1 0 0 1 351 287 )" />
  </g>
</svg>