<?xml version="1.0" encoding="utf-8"?>
<svg version="1.1" xmlns:xlink="http://www.w3.org/1999/xlink" width="58px" height="37px" xmlns="http://www.w3.org/2000/svg">
  <g transform="matrix(1 0 0 1 -495 -291 )">
    <path d="M 57.0074626865672 25.6716417910448  C 56.9328358208955 25  56.7835820895522 24.3283582089552  56.4850746268657 23.7313432835821  L 50.365671641791 11.5671641791045  C 49.6940298507463 10.2985074626866  48.4253731343284 9.47761194029851  47.0074626865672 9.47761194029851  L 39.8432835820895 9.47761194029851  L 39.8432835820895 3.80597014925373  C 39.8432835820895 1.71641791044776  38.1268656716418 0  36.0373134328358 0  L 3.87313432835821 0  C 1.78358208955224 0  0.067164179104476 1.71641791044776  0.067164179104476 3.80597014925373  C 0.067164179104476 3.80597014925373  0.067164179104476 3.80597014925373  0 3.80597014925373  L 0 32.2388059701493  C 0.067164179104476 34.3283582089552  1.78358208955224 36.044776119403  3.87313432835821 36.044776119403  L 6.03731343283582 36.044776119403  C 6.93283582089552 32.7611940298507  9.91791044776119 30.4477611940299  13.3507462686567 30.4477611940299  C 16.7835820895522 30.4477611940299  19.7686567164179 32.7611940298507  20.6641791044776 36  L 32.6044776119403 36  C 33.5 32.7611940298507  36.4850746268657 30.4477611940299  39.9179104477612 30.4477611940299  C 43.3507462686567 30.4477611940299  46.3358208955224 32.7611940298507  47.2313432835821 36.044776119403  L 53.2014925373134 36.044776119403  C 55.2910447761194 36.044776119403  57.0074626865672 34.3283582089552  57.0074626865672 32.2388059701493  L 57.0074626865672 25.6716417910448  Z M 52.6044776119403 24.7014925373134  L 52.6044776119403 24  L 41 24  L 41 13.2835820895522  L 45.589552238806 13.2835820895522  C 46.0373134328358 13.2835820895522  46.410447761194 13.5074626865672  46.634328358209 13.8805970149254  L 52.8283582089552 24.1791044776119  C 52.9029850746269 24.3283582089552  52.8283582089552 24.5522388059702  52.6791044776119 24.6268656716418  C 52.6791044776119 24.6268656716418  52.6044776119403 24.7014925373134  52.6044776119403 24.7014925373134  Z " fill-rule="nonzero" fill="#ffffff" stroke="none" transform="matrix(1 0 0 1 495 291 )" />
  </g>
</svg>