<?xml version="1.0" encoding="utf-8"?>
<svg version="1.1" xmlns:xlink="http://www.w3.org/1999/xlink" width="35px" height="8px" xmlns="http://www.w3.org/2000/svg">
  <g transform="matrix(1 0 0 1 -504 -325 )">
    <path d="M 0.544776119402982 3.98507462686567  C 0.544776119402982 6.07462686567164  2.26119402985074 7.79104477611941  4.35074626865671 7.79104477611941  C 6.44029850746268 7.79104477611941  8.15671641791045 6.07462686567165  8.15671641791045 3.98507462686567  C 8.15671641791045 1.8955223880597  6.44029850746268 0.179104477611943  4.35074626865671 0.179104477611943  C 2.26119402985074 0.179104477611943  0.544776119402982 1.8955223880597  0.544776119402982 3.98507462686567  Z M 27.1119402985075 3.98507462686567  C 27.1119402985075 6.07462686567164  28.8283582089552 7.79104477611941  30.9179104477612 7.79104477611941  C 33.0074626865672 7.79104477611941  34.7238805970149 6.07462686567165  34.7238805970149 3.98507462686567  C 34.7238805970149 1.8955223880597  33.0074626865672 0.179104477611943  30.9179104477612 0.179104477611943  C 28.7537313432836 0.179104477611943  27.1119402985075 1.82089552238806  27.1119402985075 3.98507462686567  Z " fill-rule="nonzero" fill="#ffffff" stroke="none" transform="matrix(1 0 0 1 504 325 )" />
  </g>
</svg>