<?xml version="1.0" encoding="utf-8"?>
<svg version="1.1" xmlns:xlink="http://www.w3.org/1999/xlink" width="50px" height="50px" xmlns="http://www.w3.org/2000/svg">
  <g transform="matrix(1 0 0 1 -500 -565 )">
    <path d="M 48.9583333333333 25  C 49.6025219298246 11.4720394736842  38.0071271929825 0.520833333333336  24.4791666666667 0.520833333333336  C 10.9512061403509 0.520833333333336  0 11.4720394736842  0 25  C 0 38.5279605263158  10.9512061403509 49.4791666666667  24.4791666666667 49.4791666666667  C 38.0071271929825 49.4791666666667  48.9583333333333 38.5279605263158  48.9583333333333 25  Z M 19.3256578947368 18.5581140350877  L 13.5279605263158 19.2023026315789  C 13.5279605263158 19.2023026315789  12.8837719298246 8.25109649122807  24.4791666666667 8.25109649122807  C 36.0745614035088 8.25109649122807  35.4303728070175 19.2023026315789  35.4303728070175 19.2023026315789  C 35.4303728070175 19.2023026315789  35.4303728070175 22.4232456140351  31.5652412280702 25.6441885964912  C 27.7001096491228 28.2209429824561  27.0559210526316 28.2209429824561  27.0559210526316 32.7302631578947  L 21.2582236842105 32.7302631578947  C 21.2582236842105 32.7302631578947  19.3256578947368 26.2883771929825  27.0559210526316 22.4232456140351  C 28.9884868421053 21.7790570175439  28.9884868421053 20.4906798245614  28.9884868421053 17.9139254385965  C 28.9884868421053 15.3371710526316  27.7001096491228 12.7604166666667  25.1233552631579 12.7604166666667  C 22.546600877193 12.7604166666667  19.3256578947368 13.4046052631579  19.3256578947368 18.5581140350877  Z M 21.2582236842105 41.7489035087719  L 21.2582236842105 36.5953947368421  L 26.4117324561403 36.5953947368421  L 26.4117324561403 41.7489035087719  L 21.2582236842105 41.7489035087719  Z " fill-rule="nonzero" fill="#ffffff" stroke="none" transform="matrix(1 0 0 1 500 565 )" />
  </g>
</svg>