<?xml version="1.0" encoding="utf-8"?>
<svg version="1.1" xmlns:xlink="http://www.w3.org/1999/xlink" width="46px" height="50px" xmlns="http://www.w3.org/2000/svg">
  <g transform="matrix(1 0 0 1 -60 -565 )">
    <path d="M 13.984 8  L 13.984 8.09523809523809  C 13.3093333333333 8.09523809523809  12.7266666666667 7.51619047619048  12.7266666666667 6.84571428571429  L 12.7266666666667 1.6647619047619  C 12.7266666666667 0.994285714285715  13.3093333333333 0.415238095238095  13.984 1  L 32.108 1  C 32.7826666666667 0.415238095238095  33.3653333333333 0.994285714285714  33.3653333333333 1.6647619047619  L 33.3653333333333 6.78476190476191  C 33.3653333333333 7.4552380952381  32.7826666666667 8.03428571428571  32.108 8  L 13.984 8  Z M 45 6.75428571428572  C 45.6064554988785 5.6531708567425  44.715945899737 4.75457731952947  43.608 4.74285714285714  L 36.1253333333333 4.74285714285714  L 36.1253333333333 8.88761904761905  C 36.1253333333333 9.86285714285714  35.328 10.6247619047619  34.3773333333333 11  L 11.7146666666667 11  C 10.764 10.6247619047619  9.96666666666667 9.83238095238095  9.96666666666667 8.88761904761905  L 9.96666666666667 4.77333333333333  L 2.484 4.77333333333333  C 1.36617566634247 4.77333333333333  0.459999999999999 5.67388057938797  1 6.78476190476191  L 1 47.7142857142857  C 0.46 48.8114285714286  1.34933333333333 49.7257142857143  2.484 49  L 43.6693333333333 49  C 44.5586666666667 49.7257142857143  45.6013333333333 49.4819047619048  45 47.6838095238095  L 45 6.75428571428572  Z M 36.1253333333333 21.1695238095238  C 36.1253333333333 21.687619047619  35.9413333333333 22.1447619047619  35.5426666666667 22.5409523809524  L 20.976 36.9866666666667  C 20.2093333333333 37.7485714285714  19.0133333333333 37.7485714285714  18.2466666666667 36.9866666666667  L 10.4573333333333 29.2457142857143  C 10.0897956008651 28.8890128394992  9.88257592728329 28.4000598571928  9.88257592728329 27.8895238095238  C 9.88257592728329 27.3789877618549  10.0897956008651 26.8900347795484  10.4573333333333 26.5333333333333  C 11.224 25.7714285714286  12.42 25.7714285714286  13.1866666666667 26.5333333333333  L 19.6266666666667 32.872380952381  L 32.7826666666667 19.7980952380952  C 33.5493333333333 19.0361904761905  34.7453333333333 19.0361904761905  35.512 19.7980952380952  C 35.9106666666667 20.1942857142857  36.1253333333333 20.6514285714286  36.1253333333333 21.1695238095238  Z " fill-rule="nonzero" fill="#ffffff" stroke="none" transform="matrix(1 0 0 1 60 565 )" />
  </g>
</svg>