<?xml version="1.0" encoding="utf-8"?>
<svg version="1.1" xmlns:xlink="http://www.w3.org/1999/xlink" width="50px" height="50px" xmlns="http://www.w3.org/2000/svg">
  <g transform="matrix(1 0 0 1 -205 -565 )">
    <path d="M 50 14.3835616438356  L 43.8356164383562 0  L 6.84931506849315 0  L 0 14.3835616438356  L 0 50  L 50 50  L 50 14.3835616438356  Z M 23.2876712328767 32.8767123287671  L 17.1232876712329 32.8767123287671  L 17.1232876712329 41.0958904109589  L 13.013698630137 41.0958904109589  L 13.013698630137 32.8767123287671  L 6.84931506849315 32.8767123287671  L 15.0684931506849 23.2876712328767  L 23.2876712328767 32.8767123287671  Z M 43.1506849315068 31.5068493150685  L 34.9315068493151 41.0958904109589  L 26.7123287671233 32.1917808219178  L 32.8767123287671 32.1917808219178  L 32.8767123287671 23.2876712328767  L 36.986301369863 23.2876712328767  L 36.986301369863 31.5068493150685  L 43.1506849315068 31.5068493150685  Z M 44.5205479452055 15  L 6.16438356164384 15  L 10.958904109589 5  L 39.7260273972603 5  L 44.5205479452055 15  Z " fill-rule="nonzero" fill="#ffffff" stroke="none" transform="matrix(1 0 0 1 205 565 )" />
  </g>
</svg>