<?xml version="1.0" encoding="utf-8"?>
<svg version="1.1" xmlns:xlink="http://www.w3.org/1999/xlink" width="50px" height="50px" xmlns="http://www.w3.org/2000/svg">
  <g transform="matrix(1 0 0 1 -644 -565 )">
    <path d="M 0 4.76190474330357  C 0 2.13197737343009  2.13197737343009 0  4.76190474330357 0  L 16.6666666852679 0  C 19.2965940551413 0  21.4285714285714 2.13197737343009  22 4.76190474330357  L 22 16.6666666852679  C 21.4285714285714 19.2965940551413  19.2965940551413 21.4285714285714  16.6666666852679 22  L 4.76190474330357 22  C 2.1319773734301 21.4285714285714  0 19.2965940551413  0 16.6666666852679  L 0 4.76190474330357  Z M 28 33.3333333147321  C 28.5714285714286 30.7034059448587  30.7034059448587 28.5714285714286  33.3333333147321 28  L 45.2380952566964 28  C 47.8680226265699 28.5714285714286  50 30.7034059448587  50 33.3333333147321  L 50 45.2380952566964  C 50 47.8680226265699  47.8680226265699 50  45.2380952566964 50  L 33.3333333147321 50  C 30.7034059448587 50  28.5714285714286 47.8680226265699  28 45.2380952566964  L 28 33.3333333147321  Z M 45.1464285714286 17.090476171875  L 45.9392857142857 14.8880952566964  C 46.2063872547978 14.2020618261084  46.8671286389993 13.7502611475072  47.603325012821 13.7502611475072  C 48.589547780376 13.7502611475072  49.3890392985353 14.5497526656665  49.3890392985353 15.5359754332214  C 49.3890392985353 15.7264092273309  49.3585779042271 15.9156171424073  49.2988095424107 16.0964285714286  L 46.9178571428571 22.7142857142857  C 46.6028238204032 23.5910313064175  45.6667100289715 24.0782666050438  44.7678571428571 23.8333333147321  L 37.8035714285714 21.9333333147321  C 37.0439412335133 21.709586486365  36.5224025140719 21.0122767623491  36.5224025140719 20.2203798773644  C 36.5224025140719 19.2341571098095  37.3218940322312 18.4346655916502  38.3081167997862 18.4346655916502  C 38.4542754215123 18.4346655916502  38.5998812190152 18.452609706618  38.7416666852679 18.4880952566964  L 42.3642857142857 19.4761904575893  C 38.2666666852679 11.4273809151786  32.4726190290179 7.16666662946428  24.8535714285714 6.54166668526785  C 23.9272184317254 6.465451689939  23.214224594951 5.69138774591688  23.214224594951 4.76190477120535  C 23.214224594951 3.77564824837387  24.0137434771685 2.97612936615632  25 2.97612936615632  C 25.0488712465918 2.97612936615632  25.0977218958125 2.97813555207966  25.1464285714286 2.98214285714285  C 33.7940476004464 3.69166668526785  40.5023809709821 8.440476171875  45.1464285714286 17.090476171875  Z M 4.06190474330357 35.1130952566964  L 4.059523828125 35.1119047433036  C 3.82885106796666 35.8609770560571  3.13668186749822 36.3720724391806  2.35289665966831 36.3720724391806  C 1.36667389211332 36.3720724391806  0.567182373954023 35.5725809210213  0.567182373954023 34.5863581534663  C 0.567182373954023 34.3524983677145  0.613118115038995 34.120915863549  0.702380970982143 33.9047618861607  L 3.08333331473214 27.2869047433036  C 3.39836663718608 26.4101591511717  4.33448042861781 25.9229238525455  5.23333331473214 26.1678571428571  L 12.1976190290179 28.0678571428571  C 12.9572496973801 28.2916036551832  13.4787888885621 28.988913608877  13.4787888885621 29.7808108585847  C 13.4787888885621 30.7670336261397  12.6792973704028 31.566525144299  11.6930746028478 31.566525144299  C 11.5469156744141 31.566525144299  11.4013095736924 31.5485809540233  11.259523828125 31.5130952566964  L 7.63690474330357 30.525  C 9.39285714285714 33.9738095424107  11.4595237723214 36.725  13.8416666852679 38.790476171875  C 17.0226190848214 41.5511904575893  20.7785714285714 43.1  25.1476190290178 43.459523828125  C 26.0739720104653 43.5357388233818  26.7869658348305 44.3098027549268  26.7869658348305 45.2392857142857  C 26.7869658348305 46.2255422217594  25.9874469650629 47.0250610915269  25.0011904575893 47.0250610915269  C 24.9523192109955 47.0250610915269  24.9034685617736 47.0230549055722  24.8547618861607 47.0190476004464  C 19.8023809151786 46.6047618861607  15.4023809151786 44.8083333147321  11.6880952566964 41.6488095424107  C 9.05714285714285 39.4107142857143  6.77857142857143 36.49404765625  4.85476188616071 32.9107142857143  L 4.06190474330357 35.1130952566964  Z " fill-rule="nonzero" fill="#ffffff" stroke="none" transform="matrix(1 0 0 1 644 565 )" />
  </g>
</svg>