<?xml version="1.0" encoding="utf-8"?>
<svg version="1.1" xmlns:xlink="http://www.w3.org/1999/xlink" width="50px" height="50px" xmlns="http://www.w3.org/2000/svg">
  <g transform="matrix(1 0 0 1 -57 -840 )">
    <path d="M 1 3.57142857142857  C 0.357142857142853 1.42857142857143  1.78571428571428 0  3.92857142857142 0  L 45.3571428571429 0  C 47.5 0  48.9285714285714 1.42857142857143  49 3.57142857142857  L 49 46.4285714285714  C 49.6428571428571 48.5714285714286  47.5 50  45.3571428571429 50  L 3.92857142857142 50  C 1.78571428571428 50  0.357142857142853 48.5714285714286  1 46.4285714285714  L 1 3.57142857142857  Z M 25.3571428571429 33  L 25.3571428571429 32.8571428571429  C 24.6428571428571 32.8571428571429  24.6428571428571 32.8571428571429  25.3571428571429 32.8571428571429  L 25.3571428571429 38.5714285714286  C 25.3571428571429 38.5714285714286  25.3571428571429 38.5714285714286  25.3571428571429 38  L 43.2142857142857 38  C 43.2142857142857 38.5714285714286  43.2142857142857 38.5714285714286  43.2142857142857 38.5714285714286  L 43.2142857142857 33.5714285714286  C 43.2142857142857 33.5714285714286  43.2142857142857 33.5714285714286  43.2142857142857 33  L 25.3571428571429 33  Z M 41.7857142857143 2.85714285714286  L 3.21428571428571 2.14285714285714  C 2.5 2.14285714285714  2.5 2.85714285714286  4 2.14285714285714  L 4 45.7142857142857  C 3.21428571428571 47.8571428571429  3.21428571428571 47.8571428571429  4.64285714285714 46.4285714285714  L 43.2142857142857 6.42857142857143  C 47.5 2.14285714285714  48.2142857142857 2.85714285714286  41.7857142857143 2.85714285714286  Z " fill-rule="nonzero" fill="#ffffff" stroke="none" transform="matrix(1 0 0 1 57 840 )" />
  </g>
</svg>