<?xml version="1.0" encoding="utf-8"?>
<svg version="1.1" xmlns:xlink="http://www.w3.org/1999/xlink" width="7px" height="7px" xmlns="http://www.w3.org/2000/svg">
  <g transform="matrix(1 0 0 1 -366 -854 )">
    <path d="M 6.37037037037037 3.28395061728395  C 6.37037037037037 3.28395061728395  6.98765432098765 3.28395061728395  6.98765432098765 3.90123456790123  C 6.98765432098765 4.51851851851852  6.37037037037037 4.51851851851852  6.37037037037037 4.51851851851852  L 4.51851851851852 4.51851851851852  L 4.51851851851852 6.37037037037037  C 4.51851851851852 6.98765432098765  4.51851851851852 6.98765432098765  3.90123456790123 6.98765432098765  C 3.28395061728395 6.98765432098765  3.28395061728395 6.98765432098765  3.28395061728395 6.37037037037037  L 3.28395061728395 4.51851851851852  L 1.4320987654321 4.51851851851852  C 0.814814814814813 4.51851851851852  0.814814814814813 4.51851851851852  0.814814814814813 3.90123456790123  C 0.814814814814813 3.28395061728395  1.4320987654321 3.28395061728395  1.4320987654321 3.28395061728395  L 3.28395061728395 3.28395061728395  L 3.28395061728395 1.4320987654321  C 3.28395061728395 0.814814814814813  3.90123456790123 0.814814814814813  3.90123456790123 0.814814814814813  C 3.90123456790123 0.814814814814813  4.51851851851852 1.4320987654321  4.51851851851852 1.4320987654321  L 4.51851851851852 3.28395061728395  L 6.37037037037037 3.28395061728395  Z " fill-rule="nonzero" fill="#ffffff" stroke="none" transform="matrix(1 0 0 1 366 854 )" />
  </g>
</svg>