<?xml version="1.0" encoding="utf-8"?>
<svg version="1.1" xmlns:xlink="http://www.w3.org/1999/xlink" width="51px" height="51px" xmlns="http://www.w3.org/2000/svg">
  <g transform="matrix(1 0 0 1 -352 -840 )">
    <path d="M 17.283950617284 32.0987654320988  C 17.2839506172839 31.4814814814815  16.6666666666667 31.4814814814815  16.6666666666667 31.4814814814815  C 16.0493827160494 31.4814814814815  16.0493827160494 32.0987654320988  16.0493827160494 32.0987654320988  C 16.0493827160494 32.716049382716  16.6666666666667 32.716049382716  16.6666666666667 32.716049382716  C 17.283950617284 32.716049382716  17.283950617284 32.0987654320988  17.283950617284 32.0987654320988  Z M 17.283950617284 36.4197530864198  C 17.283950617284 35.8024691358025  16.6666666666667 35.8024691358025  16.6666666666667 35.8024691358025  C 16.0493827160494 35.8024691358025  16.0493827160494 36.4197530864197  16.0493827160494 36.4197530864197  C 16.0493827160494 36.4197530864197  16.0493827160494 37.037037037037  16.6666666666667 37.037037037037  C 17.283950617284 37.037037037037  17.283950617284 37.037037037037  17.283950617284 36.4197530864198  Z M 19.1358024691358 34.5679012345679  C 19.1358024691358 33.9506172839506  19.1358024691358 33.9506172839506  18.5185185185185 33.9506172839506  L 14.1975308641975 33.9506172839506  C 13.5802469135802 33.9506172839506  13.5802469135802 33.9506172839506  13.5802469135802 34.5679012345679  C 13.5802469135802 34.5679012345679  13.5802469135802 35.1851851851852  14.1975308641975 35.1851851851852  L 18.5185185185185 35.1851851851852  C 19.1358024691358 35.1851851851852  19.1358024691358 34.5679012345679  19.1358024691358 34.5679012345679  Z M 19.1358024691358 34.5679012345679  C 19.1358024691358 33.9506172839506  19.1358024691358 33.9506172839506  18.5185185185185 33.9506172839506  L 14.1975308641975 33.9506172839506  C 13.5802469135802 33.9506172839506  13.5802469135802 33.9506172839506  13.5802469135802 34.5679012345679  C 13.5802469135802 34.5679012345679  13.5802469135802 35.1851851851852  14.1975308641975 35.1851851851852  L 18.5185185185185 35.1851851851852  C 19.1358024691358 35.1851851851852  19.1358024691358 34.5679012345679  19.1358024691358 34.5679012345679  Z M 17.283950617284 36.4197530864198  C 17.283950617284 35.8024691358025  16.6666666666667 35.8024691358025  16.6666666666667 35.8024691358025  C 16.0493827160494 35.8024691358025  16.0493827160494 36.4197530864197  16.0493827160494 36.4197530864197  C 16.0493827160494 36.4197530864197  16.0493827160494 37.037037037037  16.6666666666667 37.037037037037  C 17.283950617284 37.037037037037  17.283950617284 37.037037037037  17.283950617284 36.4197530864198  Z M 16.0493827160494 32.0987654320988  C 15.4320987654321 32.7160493827161  16.0493827160494 32.7160493827161  16.6666666666667 32.7160493827161  C 17.283950617284 32.7160493827161  17.283950617284 32.0987654320988  17.283950617284 32.0987654320988  C 17.283950617284 31.4814814814815  16.6666666666667 31.4814814814815  16.6666666666667 31.4814814814815  C 16.0493827160494 31.4814814814815  16.0493827160494 32.0987654320988  16.0493827160494 32.0987654320988  Z M 50.6172839506173 25.3086419753086  C 50.6172839506173 11.1111111111111  38.8888888888889 0  25.3086419753086 0  C 11.1111111111111 0  0 11.1111111111111  0 25.3086419753086  C 0 39.5061728395062  11.1111111111111 50.6172839506173  25.3086419753086 50.6172839506173  C 38.8888888888889 50.6172839506173  50.6172839506173 39.5061728395062  50.6172839506173 25.3086419753086  Z M 22.2222222222222 34.5679012345679  L 22.8395061728395 34.5679012345679  C 22.8395061728395 37.6543209876543  19.7530864197531 40.1234567901235  16.6666666666667 40.1234567901235  C 13.5802469135802 40.1234567901235  10.4938271604938 37.6543209876543  10.4938271604938 33.9506172839506  C 10.4938271604938 30.8641975308642  12.962962962963 27.7777777777778  16.0493827160494 27.7777777777778  L 16.6666666666667 27.7777777777778  C 19.7530864197531 27.7777777777778  22.2222222222222 30.2469135802469  22.2222222222222 33.3333333333333  L 22.2222222222222 34.5679012345679  Z M 40.1234567901235 32.7160493827161  C 40.7407407407407 37.6543209876543  37.037037037037 40.7407407407407  33.3333333333333 40.7407407407407  C 29.6296296296296 40.7407407407407  25.9259259259259 37.6543209876543  25.9259259259259 33.3333333333333  L 25.9259259259259 32.7160493827161  C 25.9259259259259 29.0123456790123  22.8395061728395 25.9259259259259  19.1358024691358 25.3086419753086  L 17.9012345679012 25.3086419753086  C 14.1975308641975 25.3086419753086  10.4938271604938 21.6049382716049  10.4938271604938 17.9012345679012  C 10.4938271604938 13.5802469135802  13.5802469135802 10.4938271604938  17.9012345679012 10.4938271604938  C 21.6049382716049 10.4938271604938  25.3086419753086 13.5802469135802  25.3086419753086 17.2839506172839  L 25.3086419753086 18.5185185185185  C 25.3086419753086 22.2222222222222  28.3950617283951 25.3086419753086  32.0987654320988 25.3086419753086  L 33.3333333333333 25.3086419753086  C 37.037037037037 25.9259259259259  40.1234567901235 29.0123456790123  40.1234567901235 32.7160493827161  Z M 40.7407407407407 16.6666666666667  C 40.7407407407407 19.7530864197531  38.2716049382716 22.8395061728395  35.1851851851852 22.8395061728395  L 33.9506172839506 22.8395061728395  C 30.8641975308642 22.8395061728395  29.0123456790123 20.3703703703704  28.3950617283951 17.2839506172839  L 28.3950617283951 16.0493827160494  C 28.3950617283951 12.962962962963  31.4814814814815 10.4938271604938  34.5679012345679 10.4938271604938  C 37.6543209876543 10.4938271604938  40.7407407407407 12.962962962963  40.7407407407407 16.6666666666667  Z M 37.037037037037 15.4320987654321  C 37.037037037037 15.4320987654321  37.037037037037 14.8148148148148  37.037037037037 14.1975308641975  C 36.4197530864198 13.5802469135802  36.4197530864198 13.5802469135802  35.8024691358025 14.1975308641975  L 34.5679012345679 15.4320987654321  L 33.3333333333333 14.1975308641975  C 33.3333333333333 14.1975308641975  32.7160493827161 14.1975308641975  32.0987654320988 14.1975308641975  C 31.4814814814815 14.1975308641975  31.4814814814815 14.8148148148148  32.0987654320988 15.4320987654321  L 33.3333333333333 16.6666666666667  L 32.0987654320988 17.9012345679012  C 32.0987654320988 17.9012345679012  32.0987654320988 18.5185185185185  32.0987654320988 19.1358024691358  C 32.0987654320988 19.1358024691358  32.7160493827161 19.1358024691358  32.7160493827161 19.1358024691358  C 32.7160493827161 19.1358024691358  33.3333333333333 19.1358024691358  33.3333333333333 19.1358024691358  L 34.5679012345679 17.9012345679012  L 35.8024691358025 19.1358024691358  C 35.8024691358025 19.1358024691358  36.4197530864197 19.1358024691358  36.4197530864197 19.1358024691358  C 36.4197530864197 19.1358024691358  37.037037037037 19.1358024691358  37.037037037037 19.1358024691358  C 37.037037037037 18.5185185185185  37.037037037037 18.5185185185185  37.037037037037 17.9012345679012  L 35.8024691358025 16.6666666666667  L 37.037037037037 15.4320987654321  Z M 19.1358024691358 34.5679012345679  C 19.1358024691358 33.9506172839506  19.1358024691358 33.9506172839506  18.5185185185185 33.9506172839506  L 14.1975308641975 33.9506172839506  C 13.5802469135802 33.9506172839506  13.5802469135802 33.9506172839506  13.5802469135802 34.5679012345679  C 13.5802469135802 34.5679012345679  13.5802469135802 35.1851851851852  14.1975308641975 35.1851851851852  L 18.5185185185185 35.1851851851852  C 19.1358024691358 35.1851851851852  19.1358024691358 34.5679012345679  19.1358024691358 34.5679012345679  Z M 17.283950617284 36.4197530864198  C 17.283950617284 35.8024691358025  16.6666666666667 35.8024691358025  16.6666666666667 35.8024691358025  C 16.0493827160494 35.8024691358025  16.0493827160494 36.4197530864197  16.0493827160494 36.4197530864197  C 16.0493827160494 36.4197530864197  16.0493827160494 37.037037037037  16.6666666666667 37.037037037037  C 17.283950617284 37.037037037037  17.283950617284 37.037037037037  17.283950617284 36.4197530864198  Z M 16.0493827160494 32.0987654320988  C 15.4320987654321 32.7160493827161  16.0493827160494 32.7160493827161  16.6666666666667 32.7160493827161  C 17.283950617284 32.7160493827161  17.283950617284 32.0987654320988  17.283950617284 32.0987654320988  C 17.283950617284 31.4814814814815  16.6666666666667 31.4814814814815  16.6666666666667 31.4814814814815  C 16.0493827160494 31.4814814814815  16.0493827160494 32.0987654320988  16.0493827160494 32.0987654320988  Z " fill-rule="nonzero" fill="#ffffff" stroke="none" transform="matrix(1 0 0 1 352 840 )" />
  </g>
</svg>