<?xml version="1.0" encoding="utf-8"?>
<svg version="1.1" xmlns:xlink="http://www.w3.org/1999/xlink" width="50px" height="50px" xmlns="http://www.w3.org/2000/svg">
  <g transform="matrix(1 0 0 1 -499 -840 )">
    <path d="M 49.3055555555556 0.694444444444445  C 50 1.38888888888889  50 1.38888888888889  50 2.08333333333333  L 43.0555555555556 45.1388888888889  C 43.0555555555556 45.8333333333333  42.3611111111111 46.5277777777778  41.6666666666667 46.5277777777778  L 40.9722222222222 46.5277777777778  C 40.9722222222222 46.5277777777778  40.9722222222222 46.5277777777778  40.2777777777778 46.5277777777778  L 27.7777777777778 40.9722222222222  L 20.8333333333333 49.3055555555556  C 20.8333333333333 49.3055555555556  20.1388888888889 50  20.1388888888889 50  L 19.4444444444444 50  C 18.75 50  18.0555555555556 49.3055555555556  18.0555555555556 48.6111111111111  L 18.0555555555556 38.8888888888889  L 41.6666666666667 9.02777777777778  L 11.8055555555556 34.7222222222222  L 0.694444444444445 29.8611111111111  C 0 29.8611111111111  0 28.4722222222222  0 27.7777777777778  C 0 27.7777777777778  0 27.0833333333333  0.694444444444445 27.0833333333333  L 47.2222222222222 0.694444444444445  C 47.9166666666667 0  48.6111111111111 0  48.6111111111111 0  L 49.3055555555556 0.694444444444445  Z " fill-rule="nonzero" fill="#ffffff" stroke="none" transform="matrix(1 0 0 1 499 840 )" />
  </g>
</svg>