<?xml version="1.0" encoding="utf-8"?>
<svg version="1.1" xmlns:xlink="http://www.w3.org/1999/xlink" width="50px" height="50px" xmlns="http://www.w3.org/2000/svg">
  <g transform="matrix(1 0 0 1 -353 -565 )">
    <path d="M 48.1781376518219 16.1943319838057  L 30.1619433198381 34.6153846153846  L 21.4574898785425 25.9109311740891  L 41.2955465587045 6.07287449392713  C 36.8421052631579 2.22672064777328  31.1740890688259 0  24.8987854251012 0  C 11.1336032388664 0  0 11.1336032388664  0 24.8987854251012  C 0 38.663967611336  11.1336032388664 49.7975708502024  24.8987854251012 49.7975708502024  C 38.663967611336 49.7975708502024  49.7975708502024 38.663967611336  49.7975708502024 24.8987854251012  C 49.7975708502024 21.8623481781377  49.1902834008097 19.0283400809717  48.1781376518219 16.1943319838057  Z M 28.5425101214575 36.2348178137652  C 28.5425101214575 36.2348178137652  16.5991902834008 39.2712550607287  16.5991902834008 39.2712550607287  L 19.8380566801619 27.5303643724696  L 28.5425101214575 36.2348178137652  Z " fill-rule="nonzero" fill="#ffffff" stroke="none" transform="matrix(1 0 0 1 353 565 )" />
  </g>
</svg>