<?xml version="1.0" encoding="utf-8"?>
<svg version="1.1" xmlns:xlink="http://www.w3.org/1999/xlink" width="50px" height="50px" xmlns="http://www.w3.org/2000/svg">
  <g transform="matrix(1 0 0 1 -204 -840 )">
    <path d="M 41.875 25  C 41.875 21.875  39.375 20  36.875 20  C 33.75 20  31.875 22.5  31.875 25  C 31.875 27.5  33.75 30  36.875 30  C 39.375 30  41.875 28.125  41.875 25  Z M 38.75 23.75  L 38.75 25  L 37.5 25  L 37.5 26.25  L 36.25 26.25  L 36.25 25  L 34.375 25  L 34.375 23.75  L 35.625 23.75  L 35.625 22.5  L 37.5 22.5  L 37.5 23.75  L 38.75 23.75  Z M 41.875 25  C 41.875 21.875  39.375 20  36.875 20  C 33.75 20  31.875 22.5  31.875 25  C 31.875 27.5  33.75 30  36.875 30  C 39.375 30  41.875 28.125  41.875 25  Z M 38.75 23.75  L 38.75 25  L 37.5 25  L 37.5 26.25  L 36.25 26.25  L 36.25 25  L 34.375 25  L 34.375 23.75  L 35.625 23.75  L 35.625 22.5  L 37.5 22.5  L 37.5 23.75  L 38.75 23.75  Z M 50 25  C 50 11.25  38.75 0  25 0  C 11.25 0  0 11.25  0 25  C 0 38.75  11.25 50  25 50  C 38.75 50  50 38.75  50 25  Z M 24.375 30  L 18.125 30  C 16.875 31.25  15 31.875  13.125 31.875  C 9.375 31.875  6.25 28.75  6.25 25  C 6.25 21.25  9.375 18.125  13.125 18.125  C 15 18.125  16.875 18.75  18.125 20  L 24.375 20  C 24.375 20  23.125 23.75  22.5 25  C 21.875 26.875  23.125 26.875  23.125 26.875  L 25.625 26.25  L 24.375 30  Z M 43.75 25  C 43.75 28.75  40.625 31.875  36.875 31.875  C 35 31.875  33.125 31.25  31.875 30  L 25 30  L 25 29.375  C 25 29.375  26.875 26.25  27.5 24.375  C 28.125 23.125  26.25 24.375  25.625 24.375  C 24.375 25  24.375 24.375  24.375 24.375  L 25.625 20  C 25.625 19.375  25.625 19.375  25.625 19.375  L 32.5 19.375  C 33.125 18.75  35 18.125  36.875 18.125  C 40.625 18.125  43.75 21.25  43.75 25  Z M 41.875 25  C 41.875 21.875  39.375 20  36.875 20  C 33.75 20  31.875 22.5  31.875 25  C 31.875 27.5  33.75 30  36.875 30  C 39.375 30  41.875 28.125  41.875 25  Z M 38.75 23.75  L 38.75 25  L 37.5 25  L 37.5 26.25  L 36.25 26.25  L 36.25 25  L 34.375 25  L 34.375 23.75  L 35.625 23.75  L 35.625 22.5  L 37.5 22.5  L 37.5 23.75  L 38.75 23.75  Z " fill-rule="nonzero" fill="#ffffff" stroke="none" transform="matrix(1 0 0 1 204 840 )" />
  </g>
</svg>