<?xml version="1.0" encoding="utf-8"?>
<svg version="1.1" xmlns:xlink="http://www.w3.org/1999/xlink" width="28px" height="26px" xmlns="http://www.w3.org/2000/svg">
  <g transform="matrix(1 0 0 1 -363 -1481 )">
    <path d="M 27.6119402985075 4.40298507462687  C 27.6119402985075 2.25373134328358  25.8208955223881 0.82089552238806  24.0298507462687 1  L 10.4179104477612 1  C 6.83582089552239 0.82089552238806  4.32835820895522 3.6865671641791  4.32835820895522 7.26865671641791  L 4.32835820895522 20.5223880597015  L 18.2985074626866 20.5223880597015  C 18.6567164179104 20.5223880597015  18.6567164179104 20.5223880597015  19.0149253731343 20.8805970149254  C 19.0149253731343 21.2388059701493  19.0149253731343 21.2388059701493  19.0149253731343 21.5970149253731  C 18.6567164179104 21.5970149253731  18.6567164179104 21.5970149253731  18.2985074626866 21.5970149253731  L 0.388059701492539 21.5970149253731  C 0.388059701492539 22.6716417910448  0.746268656716421 23.3880597014925  1.46268656716418 24.1044776119403  C 2.17910447761194 24.8208955223881  3.25373134328358 25.5373134328358  4.32835820895522 25.5373134328358  L 17.9402985074627 25.5373134328358  C 19.7313432835821 25.5373134328358  21.1641791044776 24.8208955223881  22.2388059701493 23.7462686567164  C 23.3134328358209 22.6716417910448  24.0298507462687 20.8805970149254  24 19.4477611940299  L 24 4.40298507462687  L 27.6119402985075 4.40298507462687  Z M 7.91044776119403 10.4925373134328  L 7.91044776119403 11.9253731343284  L 6.47761194029851 11.9253731343284  L 6.47761194029851 10.4925373134328  L 7.91044776119403 10.4925373134328  Z M 7.91044776119403 6.91044776119403  L 7.91044776119403 7.98507462686567  L 6.47761194029851 7.98507462686567  L 6.47761194029851 6.91044776119403  L 7.91044776119403 6.91044776119403  Z M 19.0149253731343 11  L 19.0149253731343 12  L 8.98507462686567 12  L 8.98507462686567 11  L 19.0149253731343 11  Z M 19.0149253731343 7  L 19.0149253731343 8  L 8.98507462686567 8  L 8.98507462686567 7  L 19.0149253731343 7  Z " fill-rule="nonzero" fill="#ffffff" stroke="none" transform="matrix(1 0 0 1 363 1481 )" />
  </g>
</svg>