<?xml version="1.0" encoding="utf-8"?>
<svg version="1.1" xmlns:xlink="http://www.w3.org/1999/xlink" width="51px" height="50px" xmlns="http://www.w3.org/2000/svg">
  <g transform="matrix(1 0 0 1 -57 -1115 )">
    <path d="M 51 7.90173410404625  C 51 3.62716763005781  47.757225433526 0.0895953757225493  43.2615606936416 0  L 7.73843930635838 0  C 3.46387283236994 0.0895953757225493  0 3.62716763005781  0 7.90173410404625  L 0 42.0245664739884  C 0 46.2991329479769  3.46387283236994 49.8367052023121  7.73843930635838 49  L 43.2615606936416 49  C 47.5361271676301 49.8367052023121  51 46.2991329479769  51 42.0245664739884  L 51 7.90173410404625  Z M 19.9725433526012 32.6647398843931  C 19.9725433526012 35.9812138728324  17.4667630057803 38.4869942196532  14.2239884393064 38.4869942196532  C 10.9812138728324 38.4869942196532  8.47543352601156 35.9812138728324  8.47543352601156 32.6647398843931  C 8.47543352601156 29.3482658959538  10.9812138728324 26.842485549133  14.2239884393064 26.842485549133  C 17.2456647398844 26.842485549133  19.9725433526012 29.1271676300578  19.9725433526012 32.6647398843931  Z M 22.0361271676301 12.6921965317919  C 22.7731213872832 13.2080924855491  22.7731213872832 14.5346820809249  21.9624277456647 15.271676300578  L 15.1820809248555 22.1257225433526  C 14.4450867052023 22.3468208092486  14.4450867052023 22.6416184971098  13.7080924855491 22.6416184971098  C 12.971098265896 22.6416184971098  12.4552023121387 22.4205202312139  12.2341040462428 22.1257225433526  L 8.25433526011561 18.0722543352601  C 7.51734104046243 17.5563583815029  7.51734104046243 16.3034682080925  8.25433526011561 15.5664739884393  C 8.77023121387283 14.8294797687861  10.0231213872832 14.8294797687861  10.7601156069364 15.5664739884393  L 13.2658959537572 18.0722543352601  L 18.7933526011561 12.471098265896  C 19.5303468208092 11.9552023121387  20.5621387283237 11.9552023121387  22.0361271676301 12.6921965317919  Z M 43.4826589595376 32.4436416184971  C 43.4826589595376 33.4754335260116  42.9667630057803 34.2124277456647  41.7138728323699 34  L 24.4682080924856 34  C 23.4364161849711 34.2124277456647  22.6994219653179 33.4754335260116  22.6994219653179 32.4436416184971  C 22.6994219653179 31.4118497109827  23.2153179190751 30.6748554913295  24.4682080924856 30  L 41.7138728323699 30  C 42.7456647398844 30.6748554913295  43.4826589595376 31.4118497109827  43.4826589595376 32.4436416184971  Z M 43.4826589595376 17.2615606936416  C 43.4826589595376 18.2933526011561  42.9667630057803 19.0303468208093  41.7138728323699 19  L 24.4682080924856 19  C 23.4364161849711 19.0303468208093  22.6994219653179 18.514450867052  22.6994219653179 17.2615606936416  C 22.6994219653179 16.2297687861272  23.2153179190751 15.492774566474  24.4682080924856 16  L 41.7138728323699 16  C 42.7456647398844 15.492774566474  43.4826589595376 16.2297687861272  43.4826589595376 17.2615606936416  Z " fill-rule="nonzero" fill="#ffffff" stroke="none" transform="matrix(1 0 0 1 57 1115 )" />
  </g>
</svg>